<?xml version="1.0" encoding="UTF-8"?>
<svg id="Capa_2" data-name="Capa 2" xmlns="http://www.w3.org/2000/svg" viewBox="0 0 649.54 652.33">
  <defs>
    <style>
      .cls-1 {
        fill: #fff;
      }
    </style>
  </defs>
  <g id="Layer_1" data-name="Layer 1">
    <g>
      <path class="cls-1" d="m503.83,521.74l-96.75-391.89h41.69v-23.8c0-3.59-2.92-6.52-6.51-6.52h-235.06c-3.6,0-6.52,2.92-6.52,6.5v23.82h41.71l-96.61,391.89h34.56l53.51-216.52v216.52h89.52c64.09,0,116.24-52.15,116.24-116.25,0-1.06-.01-2.12-.05-3.21l29.49,119.45h34.8Zm-179.84-32.32l-.69-.06h-50.18c-2.82-.05-5.09-2.28-5.16-5.03v-157.85c.13-2.57,2.06-4.65,4.49-4.95h.06s50.89.04,50.89.04c46.26.02,83.89,37.67,83.89,83.92s-37.31,83.58-83.29,83.92Zm103.65-135.33c-19.51-39.6-59.74-64.83-104.29-64.83h-85.57l13.36-54.1c1.38-3.73,6.09-7.88,10.64-7.88l125.96.02c3.93,0,8.71,3.38,10.35,7.14l29.55,119.65Zm-166.24-160.42l13.82-55.96c1.4-3.71,6.11-7.84,10.62-7.84h77.9c4.32,0,8.72,3.7,10.22,6.85l14.08,56.95h-126.64Z"/>
      <path class="cls-1" d="m649.27,366.14h-29.73l-1.41-.08-.17,1.72c-20.52,144.31-145.96,253.13-291.8,253.13-78.6,0-152.58-30.69-208.32-86.43-55.73-55.73-86.43-129.71-86.43-208.32C31.42,163.64,163.65,31.42,326.17,31.42c145.88,0,271.36,108.96,291.87,253.44l.19,1.32h29.71l1.38-.24.17-1.35c.03-.22.05-.44.05-.66,0-.17,0-.3-.01-.41,0-.3-.02-.52-.05-.82-9.43-71.26-41.48-135.98-92.68-187.18C495.2,33.93,413.29,0,326.17,0S157.14,33.93,95.53,95.53C33.93,157.13,0,239.04,0,326.16s33.93,169.03,95.53,230.64c61.61,61.6,143.52,95.53,230.64,95.53s169.03-33.93,230.63-95.54c51.43-51.42,83.46-116.13,92.63-187.1.07-.44.08-.86.06-1.29,0-.23-.03-.46-.08-.88l-.14-1.38Z"/>
    </g>
  </g>
</svg>