<svg width="469" height="88" viewBox="0 0 469 88" fill="none" xmlns="http://www.w3.org/2000/svg">
<path d="M62.7407 27.3224C62.4299 27.3224 62.1882 27.112 62.1191 26.7963C59.5294 15.2571 50.4825 9.43481 39.0532 9.43481C19.3367 9.39974 11.015 25.8844 11.015 43.4213C11.015 62.6064 19.3712 78.6001 39.1912 78.6001C53.3484 78.6001 61.8774 68.534 63.0169 54.9605C63.0169 54.6097 63.3277 54.3643 63.673 54.3643H73.3412C73.7211 54.3643 74.0319 54.715 73.9974 55.1008C71.5802 75.724 59.0115 88 38.2591 88C12.6379 88.0351 0 68.7443 0 44.2631C0 19.7816 13.6738 0 39.1569 0C56.1801 0 70.3719 9.15424 73.0996 26.5508C73.1687 26.9366 72.8579 27.3224 72.4434 27.3224H62.7061H62.7407Z" fill="black"/>
<path d="M152.662 0H208.99C209.338 0 209.652 0.293579 209.652 0.697247V9.17429C209.652 9.54126 209.373 9.87154 208.99 9.87154H163.774C163.426 9.87154 163.112 10.1651 163.112 10.5688V37.1375C163.112 37.5045 163.391 37.8347 163.774 37.8347H205.82C206.168 37.8347 206.482 38.1285 206.482 38.5321V47.0092C206.482 47.3761 206.203 47.7063 205.82 47.7063H163.774C163.426 47.7063 163.112 47.9998 163.112 48.4035V77.4312C163.112 77.7981 163.391 78.1283 163.774 78.1283H209.338C209.686 78.1283 210 78.4218 210 78.8255V87.3025C210 87.6695 209.721 88 209.338 88H152.662C152.314 88 152 87.7062 152 87.3025V0.697247C152 0.330276 152.279 0 152.662 0Z" fill="black"/>
<path d="M269.773 26.5263C269.43 26.5263 269.19 26.2807 269.122 25.9298C267.683 14.2105 260.041 9.33333 248.835 9.33333C239.514 9.33333 230.433 12.7368 230.433 23.6842C230.433 44.421 283 29.8246 283 62.9121C283 80.8069 265.866 88 250.925 88C232.729 88 217.343 78.9122 217 59.0176C217 58.6317 217.274 58.3508 217.651 58.3508H226.698C227.041 58.3508 227.315 58.6317 227.349 59.0176C227.691 72.6665 239.034 78.6315 251.268 78.6315C261.172 78.6315 272.069 75.4385 272.069 63.3332C272.069 40.2456 219.501 55.4386 219.501 24.5965C219.501 7.64911 234.237 0 249.281 0C265.866 0 278.615 7.92982 279.504 25.8947C279.504 26.2807 279.23 26.5965 278.854 26.5965H269.773V26.5263Z" fill="black"/>
<path d="M351.045 27.3115C350.743 27.3115 350.509 27.1012 350.442 26.7856C347.921 15.251 339.118 9.43106 327.999 9.43106C308.814 9.43106 300.716 25.9091 300.716 43.4391C300.716 62.6166 308.846 78.6039 328.133 78.6039C341.908 78.6039 350.205 68.5418 351.314 54.9736C351.314 54.6231 351.618 54.3778 351.954 54.3778H361.36C361.731 54.3778 362.032 54.7283 361.997 55.114C359.646 75.7289 347.418 88 327.224 88C302.295 88 290 68.7169 290 44.2455C290 19.7737 303.304 0 328.098 0C344.663 0 358.47 9.1506 361.126 26.5402C361.193 26.9259 360.889 27.3115 360.488 27.3115H351.012H351.045Z" fill="black"/>
<path d="M369.595 0H378.405C378.716 0 379 0.293824 379 0.69783V87.3022C379 87.6695 378.749 88 378.405 88H369.595C369.284 88 369 87.7063 369 87.3022V0.69783C369 0.330552 369.251 0 369.595 0Z" fill="black"/>
<path d="M455.774 26.5263C455.431 26.5263 455.189 26.2807 455.121 25.9298C453.683 14.2105 446.04 9.33333 434.837 9.33333C425.515 9.33333 416.432 12.7368 416.432 23.6842C416.432 44.421 469 29.8246 469 62.9121C469 80.8069 451.866 88 436.925 88C418.729 88 403.343 78.9122 403 59.0176C403 58.6317 403.274 58.3508 403.65 58.3508H412.697C413.04 58.3508 413.315 58.6317 413.351 59.0176C413.691 72.6665 425.035 78.6315 437.268 78.6315C447.171 78.6315 458.068 75.4385 458.068 63.3332C458.068 40.2456 405.503 55.4386 405.503 24.5965C405.503 7.64911 420.238 0 435.281 0C451.866 0 464.615 7.92982 465.504 25.8947C465.504 26.2807 465.23 26.5965 464.854 26.5965H455.774V26.5263Z" fill="black"/>
<path d="M122.904 51.6395C136.016 49.7662 142.954 40.4741 142.954 26.0033C142.954 9.62271 134.108 0 117.458 0H81.6589C81.3122 0 81 0.293824 81 0.69783V87.3022C81 87.6695 81.2775 88 81.6589 88H91.4065C91.7535 88 92.0657 87.7063 92.0657 87.3022V52.7045C92.0657 52.3373 92.3432 52.0068 92.7246 52.0068H111.248L132.929 87.6695C133.033 87.853 133.241 88 133.484 88H144.341C144.862 88 145.174 87.3755 144.896 86.935L122.938 51.676L122.904 51.6395ZM92.0657 42.1269V10.5409C92.0657 10.1736 92.3432 9.84306 92.7246 9.84306H113.711C126.269 9.84306 131.888 15.4992 131.888 26.0033C131.888 36.5075 126.303 42.2739 113.711 42.1636H92.0657V42.1269Z" fill="black"/>
<path d="M395.348 0H386.655C386.294 0 386 0.294551 386 0.657895V24.3421C386 24.7054 386.294 25 386.655 25H395.348C395.708 25 396 24.7054 396 24.3421V0.657895C396 0.294551 395.708 0 395.348 0Z" fill="black"/>
</svg>
