<?xml version="1.0" encoding="UTF-8"?>
<svg id="Capa_2" data-name="Capa 2" xmlns="http://www.w3.org/2000/svg" viewBox="0 0 652.57 651.72">
  <defs>
    <style>
      .cls-1 {
        fill: #fff;
      }
    </style>
  </defs>
  <g id="Layer_1" data-name="Layer 1">
    <g>
      <path class="cls-1" d="m245.92,83.44h158.94c3.92,0,10.72-.28,20.56-.95,13.66-.41,24.04-.79,31.06-1.17,12.9-.41,23.12-3.16,30.55-8.16-51.62-31.14-105.01-46.71-160.17-46.68-50.08,0-101.91,14.3-155.49,42.89,7.42,7.28,17.21,11.65,27.58,12.34,18.03,1.2,33.69,1.74,46.97,1.74Z"/>
      <path class="cls-1" d="m556.93,95.62C493.16,31.87,416.28,0,326.29,0S159.41,31.87,95.65,95.62C31.88,159.36,0,236.2,0,326.13s31.88,166.68,95.65,230.23c63.79,63.57,140.67,95.36,230.64,95.36s166.85-31.79,230.64-95.36c63.79-63.55,95.67-140.3,95.65-230.23-.02-89.93-31.9-166.77-95.65-230.51Zm-9.49,450.65c-61.04,60.98-134.78,91.48-221.21,91.5-86.43.02-160.16-30.48-221.18-91.5C44.06,485.22,13.54,411.73,13.47,325.78c0-86.35,30.57-160.04,91.72-221.09C166.35,43.65,240.04,13.13,326.29,13.13c86.45,0,160.19,30.49,221.21,91.47,61.02,60.98,91.6,134.68,91.72,221.09-.08,86.07-30.66,159.6-91.72,220.58h-.06Z"/>
      <path class="cls-1" d="m590.36,184.78c-21.88-43.13-54.58-79.84-94.89-106.56-1.16,7.62-1.84,15.29-2.06,22.99-.12,12.7.71,25.38,2.47,37.96l.63,2.31-2.37-1.17-4.74-1.14-4.08-.63h-1.17v-1.77c-3.92-13.98-10.34-23.25-19.33-27.96-8.98-4.71-25.18-6.96-48.17-6.96h-60.41l.57,335.27c-5.46,11.45-13.96,21.18-24.58,28.12-10.26-7.33-18.67-16.96-24.54-28.12V101.85h-62.69c-24.7,0-42.54,3.67-53.39,11.07-6.52,4.68-10.95,13.06-13.32,25.15v1.11l-1.14-.63c-3.67.41-7.35.6-11.04.57l-.63.63v-1.77l.63-4.14c-.04-3.71.14-7.41.54-11.1-.27-3.92-.27-5.69,0-5.31,0-6.64-.97-21.11-2.91-43.4-42.08,26.83-76.56,64.04-100.11,108.05-24.18,44.03-36.8,93.49-36.66,143.72,0,82.57,29.24,153.12,87.71,211.63,58.47,58.51,128.99,87.75,211.57,87.71,82.62,0,153.16-29.24,211.63-87.71,58.47-58.47,87.71-129.02,87.71-211.63,0-49.18-12.11-97.6-35.23-141Zm-221.25-32.96c17.62-4.22,35.65-6.47,53.77-6.71,17.51-.08,34.98,1.69,52.12,5.28l21.67,4.74c8.65,2.13,17.46,3.48,26.35,4.05,7.3.26,14.2-3.35,18.16-9.49l6.01,67.05c.41,4.48,1.09,8.94,2.02,13.35l1.33,1.77h-2.34l-8.16,1.74-1.8.6v-2.34c-21.51-46.92-61.03-70.39-118.58-70.41-15.28-.25-30.44,2.66-44.53,8.57l-5.91-3.64-.09-14.58Zm-91.95,261.26c10.91,25.05,25.97,44.28,44.98,58.17-11.8,6.97-24.6,12.1-37.96,15.21-24.57-19.55-41.93-38.12-52.09-55.73-17.08-29.82-25.82-63.69-25.3-98.05,0-29.95,7.61-59.4,22.14-85.59,13.76-26.02,34.25-47.87,59.34-63.26l7.08,2.94v42.19c-23,24.23-34.51,58.05-34.51,101.47-.34,28.38,5.22,56.53,16.32,82.65Zm-58.26,106.18l-27.01-1.74c-5.85-.38-15.44-.6-28.75-.6-21.09,0-39.67.59-55.76,1.77l-1.77.57.63-1.17v-10.56l-.63-1.74,1.17.57c8.63-.35,14.77-2.53,18.53-6.33,3.76-3.8,5.72-10.98,6.14-21.1l.6-282.16c0-12.65-1.2-20.94-3.51-25.3-3.57-5.95-10.79-8.82-21.76-8.82h-2.88l-1.2.54v-11.67l-.6-1.8,1.8.79c11.48,1.12,23.01,1.66,34.54,1.61,9.05,0,22.95-.33,41.72-.98,28.15-.95,45.02-1.42,50.61-1.42,21.35-.3,42.71.63,63.95,2.78v21.63c-19.93-7.23-41.02-10.73-62.21-10.34-13.49-.07-26.95,1.41-40.11,4.43-3.61.99-7.31,1.6-11.04,1.83h-2.94l.57,302.94c0,14.49,4.68,23.06,14.01,25.81,11.28,3.48,27.65,5.23,49.12,5.25,48.2,0,87.13-15.16,116.78-45.48,29.65-30.32,44.41-70.5,44.28-120.54,0-37.09-11.34-73.65-34.03-109.69v-48.65c19.2,14.04,33.24,26.35,42.29,36.91,30.15,34.43,45.21,76.09,45.17,124.97,0,53.58-18.57,96.81-55.7,129.68-37.13,32.87-86.25,49.28-147.36,49.22-10.94,0-22.65-.41-34.63-1.2Zm178.39,70.34h-123.8l-1.8,1.27.6-2.37v-9.93l-.6-1.2h1.8c14.42-2.72,24.21-8.17,29.35-16.35,3.5-6.18,5.44-17.05,5.82-32.61,8.74-1.86,17.37-4.2,25.84-7.02,7.84,2.93,15.89,5.3,24.07,7.08,1.16,18.43,4.21,30.81,9.14,37.13,4.81,6.33,14.11,10.25,27.83,11.77h1.74v12.24Zm148.66-88.56v2.34l-4.68-1.17c-5.61.73-11.12,2.1-16.42,4.08-10.96,3.92-16.65,5.88-17.05,5.88-14.49,3.92-24.45,6.33-29.95,7.62-18.24,3.47-36.76,5.23-55.32,5.25-24.04.41-48-2.95-71.01-9.96,9.97-2.99,19.33-7.74,27.61-14.04,15.42,4.48,31.38,6.84,47.44,7.02,25.66-.03,50.9-6.55,73.35-18.98,23.44-12.65,39.95-28.62,49.31-47.76v-1.2l1.14.6,7.65,2.91,1.14.6-13.22,56.81Z"/>
    </g>
  </g>
</svg>