<svg width="216" height="44" viewBox="0 0 216 44" fill="none" xmlns="http://www.w3.org/2000/svg">
<path d="M10.4297 13.037V17.7778H20.557V27.5556H10.4297V39.2593H0V3.16445C0 3.13482 0.0241847 3.11111 0.0544157 3.11111H22.1699L22.8803 13.037H10.4297Z" fill="white"/>
<path d="M52.5385 8.67407C55.9924 12.1289 57.7201 16.2993 57.7201 21.1852C57.7201 26.0711 55.9924 30.2933 52.5385 33.7496C49.0847 37.2044 44.9188 38.9319 40.0411 38.9319C35.1633 38.9319 30.9431 37.2044 27.4892 33.7496C24.0353 30.2948 22.3076 26.1067 22.3076 21.1852C22.3076 16.2637 24.0338 12.1289 27.4877 8.67407C30.9416 5.21926 35.1255 3.49185 40.0396 3.49185C44.9536 3.49185 49.0832 5.21926 52.537 8.67407H52.5385ZM37.0331 28.4756C37.0331 29.2859 37.3384 29.9896 37.9491 30.5881C38.5598 31.1867 39.2959 31.4859 40.159 31.4859C41.0221 31.4859 41.7491 31.1867 42.3417 30.5881C42.9342 29.9896 43.2304 29.2859 43.2304 28.4756V13.7393C43.2304 12.8948 42.9342 12.1733 42.3417 11.5733C41.6509 10.877 40.7772 10.5852 39.7206 10.6993C39.1961 10.757 38.6943 10.96 38.2816 11.283C37.4488 11.9348 37.0331 12.7526 37.0331 13.7378V28.4741V28.4756Z" fill="white"/>
<path d="M73.9143 39.2593L68.6844 30.1289L63.6177 39.2593H52.1768L63.072 20.5704L52.7753 3.11111H64.5427L68.8461 10.9067L73.2039 3.11111H84.5888L74.5099 20.4637L85.6227 39.2593H73.9098H73.9143Z" fill="white"/>
<path d="M112.308 9.48148V19.8518H113.668V9.48148H112.308Z" fill="white"/>
<path d="M115.785 9.48148V19.8518H117.145V15.4193C117.145 14.5689 117.139 13.8059 117.121 13.1274C117.104 12.4474 117.076 11.7867 117.036 11.1437L117.083 11.1259C117.352 11.6904 117.654 12.2652 117.993 12.8474C118.332 13.4296 118.687 14.0133 119.057 14.5926L122.416 19.8533H123.794V9.48296H122.434V13.8237C122.434 14.6222 122.445 15.357 122.467 16.037C122.49 16.7185 122.528 17.403 122.59 18.0859L122.561 18.0993C122.312 17.5704 122.029 17.0252 121.716 16.4696C121.403 15.9141 121.051 15.3363 120.661 14.7304L117.275 9.48296H115.783L115.785 9.48148Z" fill="white"/>
<path d="M124.702 9.48148V10.5185H127.876V19.8518H129.237V10.5185H132.562V9.48148H124.702Z" fill="white"/>
<path d="M133.47 9.48148V19.8518H139.516V18.6667H134.83V14.963H138.911V13.9259H134.83V10.6667H139.214V9.48148H133.47Z" fill="white"/>
<path d="M143.654 9.17037C143.175 9.17037 142.707 9.18963 142.247 9.22667C141.788 9.26371 141.381 9.32 141.027 9.39111V19.8519H142.388V15.2593H143.688C144.301 15.2741 144.773 15.44 145.101 15.7585C145.429 16.077 145.663 16.597 145.811 17.3215C145.961 17.9852 146.099 18.5319 146.216 18.9644C146.334 19.397 146.436 19.6933 146.522 19.8533H147.94C147.831 19.6459 147.71 19.2948 147.577 18.8C147.444 18.3052 147.293 17.6889 147.12 16.9467C146.996 16.3941 146.809 15.9319 146.555 15.5674C146.301 15.203 145.969 14.9496 145.562 14.8044V14.757C146.135 14.5659 146.606 14.243 146.98 13.7882C147.353 13.3319 147.55 12.7541 147.563 12.0519C147.563 11.64 147.489 11.2593 147.347 10.9126C147.204 10.5674 146.995 10.277 146.726 10.037C146.399 9.73926 145.99 9.51852 145.492 9.37778C144.995 9.23704 144.383 9.16889 143.656 9.17037H143.654ZM143.744 10.44C144.481 10.4444 145.074 10.603 145.515 10.917C145.956 11.2311 146.185 11.72 146.195 12.3896C146.188 12.9941 145.969 13.4756 145.544 13.8296C145.119 14.1837 144.534 14.363 143.792 14.3719H142.389V10.5659C142.501 10.5333 142.669 10.5022 142.9 10.4785C143.13 10.4533 143.413 10.443 143.745 10.4415L143.744 10.44Z" fill="white"/>
<path d="M149.341 9.48148V19.8518H150.55V15.4193C150.55 14.5689 150.544 13.8059 150.526 13.1274C150.509 12.4474 150.481 11.7867 150.441 11.1437L150.488 11.1259C150.757 11.6904 151.059 12.2652 151.398 12.8474C151.737 13.4296 152.092 14.0133 152.462 14.5926L155.821 19.8533H157.199V9.48296H155.99V13.8237C155.99 14.6222 155.996 15.357 156.019 16.037C156.042 16.7185 156.084 17.403 156.146 18.0859L156.113 18.0993C155.863 17.5704 155.585 17.0252 155.274 16.4696C154.961 15.9141 154.609 15.3363 154.219 14.7304L150.833 9.48296H149.341V9.48148Z" fill="white"/>
<path d="M162.217 9.48148L158.619 19.8518H160.037L161.134 16.5926H164.886L166.012 19.8518H167.477L163.866 9.48148H162.217ZM162.986 10.6667H163.019C163.096 10.9659 163.176 11.2711 163.264 11.5852C163.35 11.8978 163.453 12.2252 163.569 12.563L164.605 15.5556H161.414L162.449 12.5481C162.652 11.9126 162.832 11.2859 162.986 10.6667Z" fill="white"/>
<path d="M167.631 9.48148V10.5185H170.805V19.8518H172.165V10.5185H175.491V9.48148H167.631Z" fill="white"/>
<path d="M176.397 9.48148V19.8518H177.758V9.48148H176.397Z" fill="white"/>
<path d="M184.218 9.28445C182.769 9.3052 181.59 9.80297 180.68 10.7793C179.771 11.757 179.3 13.083 179.272 14.7615C179.297 16.3645 179.746 17.643 180.615 18.5956C181.484 19.5482 182.628 20.0356 184.058 20.0593C185.453 20.0548 186.616 19.5867 187.548 18.6563C188.481 17.7274 188.968 16.3645 189.002 14.5645C188.984 12.9896 188.549 11.723 187.699 10.763C186.848 9.80445 185.689 9.3126 184.218 9.28594V9.28445ZM184.152 10.3822C185.294 10.4296 186.152 10.877 186.712 11.7245C187.273 12.5733 187.55 13.5378 187.548 14.6222C187.542 15.8385 187.246 16.8578 186.659 17.677C186.073 18.4978 185.232 18.9274 184.137 18.96C183.048 18.923 182.212 18.4963 181.629 17.683C181.044 16.8682 180.748 15.8859 180.74 14.7333C180.74 13.5496 181.026 12.5348 181.596 11.6963C182.164 10.8578 183.014 10.4193 184.152 10.3808V10.3822Z" fill="white"/>
<path d="M190.606 9.48148V19.8518H191.816V15.4193C191.816 14.5689 191.805 13.8059 191.787 13.1274C191.77 12.4474 191.742 11.7867 191.702 11.1437L191.749 11.1259C192.018 11.6904 192.327 12.2652 192.665 12.8474C193.004 13.4296 193.359 14.0133 193.731 14.5926L197.086 19.8533H198.466V9.48296H197.257V13.8237C197.257 14.6222 197.268 15.357 197.29 16.037C197.313 16.7185 197.356 17.403 197.417 18.0859L197.384 18.0993C197.135 17.5704 196.852 17.0252 196.539 16.4696C196.226 15.9141 195.874 15.3363 195.484 14.7304L192.098 9.48296H190.606V9.48148Z" fill="white"/>
<path d="M203.51 9.48148L199.912 19.8518H201.33L202.427 16.5926H206.174L207.305 19.8518H208.77L205.159 9.48148H203.51ZM204.274 10.6667H204.308C204.385 10.9659 204.465 11.2711 204.553 11.5852C204.639 11.8978 204.742 12.2252 204.858 12.563L205.898 15.5556H202.702L203.742 12.5481C203.945 11.9126 204.119 11.2859 204.274 10.6667Z" fill="white"/>
<path d="M210.104 9.48148V19.8518H216V18.6667H211.465V9.48148H210.104Z" fill="white"/>
<path d="M119.75 32.8222C119.468 32.9556 119.129 33.0607 118.736 33.1378C118.343 33.2148 117.933 33.2548 117.509 33.2563C116.204 33.2415 115.199 32.8607 114.492 32.117C113.784 31.3733 113.426 30.3541 113.417 29.0622C113.434 27.6844 113.815 26.6237 114.558 25.883C115.302 25.1422 116.306 24.7674 117.571 24.7585C118.015 24.7615 118.419 24.803 118.781 24.883C119.144 24.963 119.457 25.0667 119.719 25.1926L120.05 24.0933C119.868 23.9926 119.567 23.8918 119.147 23.7911C118.727 23.6904 118.186 23.637 117.522 23.6281C115.846 23.6518 114.507 24.157 113.505 25.1437C112.503 26.1304 111.989 27.4518 111.963 29.1081C111.995 30.8252 112.496 32.1363 113.467 33.0385C114.439 33.9407 115.69 34.3955 117.222 34.403C117.873 34.397 118.441 34.3437 118.924 34.24C119.406 34.1378 119.776 34.0207 120.033 33.8918L119.749 32.8237L119.75 32.8222Z" fill="white"/>
<path d="M121.831 23.8519V34.2222H123.191V29.3333H128.331V34.2222H129.691V23.8519H128.331V28.1482H123.191V23.8519H121.831Z" fill="white"/>
<path d="M134.877 23.8519L131.285 34.2222H132.7L133.797 30.963H137.544L138.675 34.2222H140.138L136.524 23.8519H134.877ZM135.646 25.0371H135.679C135.756 25.3363 135.836 25.6459 135.924 25.96C136.01 26.2726 136.113 26.6 136.229 26.9378L137.269 29.9259H134.074L135.114 26.9185C135.316 26.283 135.49 25.6563 135.646 25.0371Z" fill="white"/>
<path d="M141.783 23.8519V34.2222H142.992V29.7911C142.992 28.9407 142.982 28.1748 142.964 27.4948C142.947 26.8163 142.918 26.1541 142.879 25.5111L142.926 25.4978C143.195 26.0607 143.503 26.6311 143.842 27.2133C144.181 27.7956 144.536 28.3778 144.908 28.957L148.263 34.2207H149.643V23.8504H148.434V28.1896C148.434 28.9867 148.445 29.7274 148.467 30.4074C148.49 31.0874 148.532 31.7674 148.594 32.4504L148.561 32.4637C148.312 31.9348 148.029 31.3956 147.716 30.84C147.403 30.2844 147.051 29.7022 146.661 29.0963L143.275 23.8519H141.783Z" fill="white"/>
<path d="M153.422 34.2222V29.7911C153.422 28.9407 153.413 28.1763 153.395 27.4963C153.377 26.8178 153.346 26.1556 153.306 25.5141L153.355 25.4993C153.641 26.0622 153.962 26.6356 154.32 27.2193C154.678 27.8015 155.053 28.3822 155.446 28.9615L158.996 34.2237H160.073V23.8533H158.712V28.1926C158.711 28.9911 158.721 29.7289 158.746 30.4104C158.77 31.0919 158.814 31.7719 158.879 32.4548L158.845 32.4696C158.581 31.9407 158.285 31.3985 157.954 30.843C157.622 30.2874 157.251 29.7067 156.838 29.1007L153.254 23.8533H152.062V34.2237H153.422V34.2222Z" fill="white"/>
<path d="M162.491 23.7037V34.2222H168.537V33.037H163.852V29.3333H167.933V28.1481H163.852V24.8889H168.235V23.7037H162.491Z" fill="white"/>
<path d="M170.352 23.8519V34.2222H176.247V33.1852H171.712V23.8519H170.352Z" fill="white"/>
<path d="M180.879 23.6267C179.83 23.643 178.997 23.9111 178.381 24.4326C177.764 24.9541 177.45 25.6311 177.436 26.4608C177.445 27.1896 177.693 27.7926 178.187 28.2667C178.682 28.7408 179.369 29.1245 180.246 29.4193C180.958 29.6815 181.47 29.9733 181.786 30.2948C182.102 30.6148 182.261 31.0148 182.253 31.4933C182.249 32.0282 182.049 32.4533 181.662 32.7763C181.277 33.0978 180.731 33.2637 180.024 33.2711C179.545 33.2667 179.094 33.2015 178.668 33.0726C178.243 32.9437 177.871 32.7822 177.559 32.5911L177.214 33.72C177.512 33.9111 177.906 34.0726 178.399 34.2015C178.892 34.3304 179.403 34.3956 179.929 34.4C181.183 34.3748 182.119 34.0756 182.734 33.4978C183.349 32.92 183.656 32.2119 183.655 31.3822C183.655 30.6267 183.429 30.0089 182.974 29.5304C182.519 29.0519 181.839 28.6474 180.938 28.317C180.207 28.0504 179.67 27.7689 179.327 27.4696C178.985 27.1704 178.818 26.7837 178.822 26.3082C178.815 25.9319 178.967 25.5793 179.28 25.2578C179.593 24.9348 180.11 24.7645 180.829 24.7437C181.313 24.7526 181.727 24.8104 182.072 24.92C182.415 25.0296 182.675 25.1378 182.852 25.24L183.23 24.1378C182.992 24.0015 182.678 23.8859 182.285 23.7852C181.892 23.6859 181.422 23.6326 180.878 23.6282L180.879 23.6267Z" fill="white"/>
<path d="M96.8896 0V44H97.9477V0H96.8896Z" fill="white"/>
</svg>
