<svg width="161" height="53" viewBox="0 0 161 53" fill="none" xmlns="http://www.w3.org/2000/svg">
<g clip-path="url(#clip0_1815_916)">
<path d="M34.9731 5.69216C34.8758 5.7975 34.807 5.87853 34.734 5.95145C33.5834 7.10204 32.4287 8.24858 31.2862 9.40727C31.0998 9.59768 30.9904 9.61794 30.7757 9.42752C28.438 7.31271 25.7113 6.02843 22.5673 5.72862C18.0741 5.29918 14.1117 6.54295 10.8016 9.65035C8.1519 12.1379 6.64068 15.2291 6.25578 18.8226C5.7777 23.3278 6.98911 27.3467 10.0521 30.7296C12.5964 33.5372 15.7931 35.101 19.5651 35.4292C22.3971 35.6763 25.14 35.3036 27.7046 34.0031C31.3551 32.1516 33.5875 29.2428 34.2033 25.159C34.2357 24.9443 34.2641 24.7255 34.3005 24.4743C34.1182 24.4662 33.9724 24.4541 33.8265 24.4541C29.6818 24.4541 25.5371 24.4541 21.3923 24.4541C21.052 24.4541 20.8818 24.2798 20.8818 23.9314C20.8818 22.3595 20.8899 20.7835 20.8737 19.2116C20.8737 18.9037 20.971 18.8186 21.2708 18.8186C27.3278 18.8267 33.3849 18.8267 39.4419 18.8145C39.8349 18.8145 39.8633 19.0212 39.8998 19.2926C40.1388 21.0266 40.155 22.7646 39.9808 24.5067C39.7944 26.3785 39.3933 28.1975 38.7086 29.9477C37.2136 33.7803 34.5436 36.5919 31.039 38.646C28.6 40.0761 25.926 40.773 23.1183 41.0241C19.9986 41.3037 16.9356 41.0363 14.0023 39.9343C7.01748 37.305 2.36631 32.4312 0.599838 25.1266C-0.960003 18.6727 0.563375 12.7983 4.74861 7.66518C7.81968 3.90551 11.7902 1.499 16.5467 0.494257C21.3397 -0.518585 25.9665 -1.0029e-05 30.3462 2.28091C31.9668 3.12765 33.4173 4.21746 34.7584 5.45718C34.8272 5.52201 34.888 5.59493 34.9771 5.68811L34.9731 5.69216Z" fill="white"/>
<path d="M125.051 28.0719C125.051 32.0342 125.075 35.9924 125.043 39.9546C125.023 42.0613 124.658 44.1194 123.823 46.0681C122.268 49.6941 119.5 51.8535 115.668 52.6597C113.038 53.2107 110.433 53.1337 107.897 52.1654C105.028 51.0675 102.885 49.1188 101.366 46.4732C101.171 46.137 101.017 45.7764 100.835 45.428C100.746 45.2578 100.786 45.1606 100.965 45.0877C102.508 44.4516 104.048 43.8115 105.587 43.1633C105.818 43.066 105.859 43.224 105.928 43.3658C106.365 44.2936 106.945 45.1201 107.686 45.825C109.193 47.2633 110.984 47.8912 113.067 47.7494C114.156 47.6725 115.202 47.4496 116.166 46.9229C117.924 45.9628 118.84 44.403 119.278 42.507C119.598 41.1335 119.529 39.7358 119.529 38.3421C119.529 38.2733 119.472 38.2004 119.44 38.1315C119.363 38.176 119.265 38.2044 119.209 38.2692C118.552 39.0025 117.787 39.594 116.912 40.0397C114.647 41.1903 112.264 41.405 109.817 40.8297C104.595 39.6021 100.576 35.2591 99.8343 29.9437C99.1901 25.3413 100.576 21.3791 103.914 18.1461C105.916 16.2055 108.334 15.0387 111.118 14.7348C113.897 14.431 116.429 15.0589 118.609 16.8821C118.812 17.0522 118.986 17.2548 119.18 17.429C119.257 17.4979 119.367 17.5384 119.46 17.591C119.484 17.4938 119.533 17.4006 119.533 17.3034C119.541 16.797 119.545 16.2906 119.533 15.7841C119.529 15.5573 119.598 15.4641 119.841 15.4641C121.478 15.4722 123.118 15.4762 124.755 15.4641C125.092 15.4641 125.059 15.6626 125.059 15.8773C125.059 19.9449 125.059 24.0125 125.059 28.076H125.055L125.051 28.0719ZM119.934 27.9423C119.934 26.6823 119.764 25.6695 119.351 24.5918C118.642 22.7525 117.467 21.3102 115.652 20.4878C112.722 19.1589 109.291 20.0543 107.289 22.639C105.762 24.608 105.271 26.8606 105.62 29.2995C105.916 31.3576 106.852 33.0875 108.501 34.3799C111.373 36.6325 115.311 36.3853 117.766 33.7925C119.31 32.1598 119.934 30.1584 119.938 27.9423H119.934Z" fill="white"/>
<path d="M68.9611 27.8937C68.9084 35.6845 62.8352 41.1741 55.587 41.1376C48.3914 41.1011 42.3546 35.6399 42.3506 27.8896C42.3506 20.1272 48.3509 14.6214 55.7004 14.6417C63.0094 14.6619 68.9125 20.1718 68.9611 27.8937ZM48.201 27.6547C48.201 29.259 48.4806 30.5797 49.1126 31.8154C51.584 36.6487 58.0017 37.3131 61.3726 33.0835C63.4753 30.442 63.6819 26.338 61.8587 23.3683C59.3913 19.3534 53.8367 18.689 50.5104 22.0233C48.8979 23.6357 48.2253 25.633 48.201 27.6547Z" fill="white"/>
<path d="M97.5898 27.8815C97.5939 35.3522 91.8002 41.1335 84.3089 41.1335C76.85 41.1335 71.0239 35.3401 71.0117 27.9099C70.9996 20.4432 76.8297 14.6376 84.3291 14.6457C91.8245 14.6579 97.5858 20.4067 97.5898 27.8815ZM91.7678 27.7033C91.7516 27.4723 91.7354 27.0712 91.6867 26.6742C91.2168 22.7525 87.9998 19.5924 83.7255 19.9084C81.8901 20.0421 80.3262 20.7997 79.054 22.1286C77.7211 23.5182 77.0283 25.1995 76.8865 27.1077C76.6879 29.7573 77.4132 32.0787 79.3741 33.9464C82.1292 36.5717 86.5899 36.5474 89.3166 33.8897C91.0101 32.2408 91.7597 30.207 91.7718 27.7033H91.7678Z" fill="white"/>
<path d="M143.368 31.9248C144.267 33.6507 145.491 34.9754 147.355 35.5264C150.543 36.4704 153.776 35.6682 156.005 32.5932C156.292 32.1962 156.211 32.1922 156.653 32.4839C157.921 33.3265 159.185 34.1692 160.453 35.016C160.559 35.0848 160.656 35.1618 160.79 35.255C160.664 35.4373 160.563 35.6034 160.441 35.7574C158.245 38.6257 155.401 40.457 151.799 40.9836C144.429 42.0572 137.915 37.386 136.776 30.126C136.229 26.6458 136.784 23.3318 138.692 20.3338C140.726 17.1373 143.66 15.2372 147.424 14.7591C152.524 14.1109 156.353 16.1852 159.12 20.4148C159.923 21.6464 160.425 23.0158 160.968 24.369C161.073 24.6283 160.879 24.6526 160.733 24.7133C158.78 25.5236 156.827 26.3298 154.874 27.1361C151.143 28.6796 147.415 30.2232 143.688 31.7668C143.591 31.8073 143.502 31.8559 143.364 31.9207L143.368 31.9248ZM142.392 27.4521C142.566 27.3872 142.671 27.3467 142.776 27.3062C145.471 26.188 148.165 25.0699 150.855 23.9557C151.872 23.5344 152.881 23.1049 153.902 22.6958C154.141 22.5985 154.194 22.481 154.048 22.2744C153.841 21.9827 153.663 21.6627 153.416 21.4074C152.354 20.2933 150.997 19.8476 149.502 19.795C146.5 19.6896 143.518 21.9787 142.687 24.9848C142.473 25.7707 142.363 26.5729 142.383 27.4561L142.392 27.4521Z" fill="white"/>
<path d="M128.475 20.9132C128.475 14.6092 128.475 8.30126 128.475 1.99733C128.475 1.67592 128.637 1.51521 128.961 1.51521C130.569 1.51521 132.174 1.52332 133.782 1.50711C134.11 1.50711 134.191 1.61245 134.191 1.9244C134.183 14.589 134.183 27.2536 134.191 39.9181C134.191 40.2422 134.094 40.3273 133.774 40.3273C132.145 40.3111 130.517 40.3192 128.892 40.3192C128.479 40.3192 128.475 40.3192 128.475 39.8938C128.475 33.5656 128.475 27.2414 128.475 20.9132Z" fill="white"/>
</g>
<defs>
<clipPath id="clip0_1815_916">
<rect width="161" height="53" fill="white"/>
</clipPath>
</defs>
</svg>
