<svg width="120" height="43" viewBox="0 0 120 43" fill="none" xmlns="http://www.w3.org/2000/svg">
<g clip-path="url(#clip0_1815_1033)">
<path d="M102.942 17.2006V20.0931H93.9508V17.8994L93.8488 17.8742C93.7914 18.0127 93.7276 18.148 93.6766 18.2865C93.5012 18.7743 93.329 19.2622 93.1569 19.75C93.007 20.1718 93.0517 20.1183 92.5989 20.1183C89.9621 20.1183 87.3252 20.1183 84.6884 20.1183C82.1504 20.1183 79.6124 20.1183 77.0776 20.1183C76.9277 20.1183 76.7811 20.1183 76.6121 20.1183C76.3411 19.3723 76.0732 18.6484 75.8086 17.9245C75.7799 17.9245 75.7512 17.9277 75.7257 17.9308V20.09H66.6992V17.2038H83.8466C84.1495 18.041 84.4556 18.8939 84.7904 19.8193C84.8637 19.6839 84.9084 19.621 84.9339 19.5486C85.189 18.853 85.4504 18.1606 85.6895 17.4587C85.7629 17.2478 85.8649 17.1786 86.0913 17.1817C91.6169 17.188 97.1392 17.1849 102.665 17.1849C102.738 17.1849 102.815 17.1912 102.939 17.2006H102.942Z" fill="white"/>
<path d="M57.8346 8.66798H24.2285V5.7881C24.4039 5.77865 24.5824 5.75662 24.7642 5.75662C34.7759 5.75662 44.7876 5.75662 54.7992 5.75662C55.3987 5.75662 55.9981 5.75977 56.5975 5.75662C56.7729 5.75662 56.9196 5.77551 56.9833 5.9675C57.2575 6.79842 57.5381 7.62619 57.8123 8.45711C57.8315 8.51376 57.8251 8.57671 57.8346 8.66798Z" fill="white"/>
<path d="M24.2256 37.2874V34.3761H57.7807C57.752 34.5492 57.7456 34.694 57.701 34.8293C57.4587 35.5532 57.2068 36.274 56.9613 36.9979C56.8879 37.215 56.7445 37.3158 56.5053 37.2874C56.432 37.278 56.3555 37.2874 56.2789 37.2874C45.7762 37.2874 35.2735 37.2874 24.7708 37.2874H24.2256Z" fill="white"/>
<path d="M24.2354 2.96173V0.00630393H24.6275C31.4253 0.00630393 38.2262 9.09995e-06 45.0271 0.0125988C46.6628 0.0125988 48.2921 0.110169 49.8927 0.516185C51.5347 0.934792 52.96 1.74682 54.2768 2.77603C54.3342 2.82009 54.3852 2.87675 54.4777 2.96488H24.2354V2.96173Z" fill="white"/>
<path d="M54.4615 40.0887C53.8493 40.608 53.2307 41.0392 52.5771 41.4169C50.8936 42.3926 49.0539 42.8363 47.1185 42.9308C46.3565 42.9685 45.5976 42.9937 44.8356 42.9937C38.1367 43 31.441 42.9937 24.7421 42.9937C24.5826 42.9937 24.4232 42.9937 24.2383 42.9937V40.0855H54.4647L54.4615 40.0887Z" fill="white"/>
<path d="M30.3057 20.1214V17.2101H56.2755C56.1192 17.4147 55.9981 17.5972 55.8578 17.7609C55.3126 18.3872 54.7578 19.0041 54.2094 19.6273C53.9001 19.9798 53.5398 20.134 53.036 20.1309C45.5974 20.112 38.1588 20.1183 30.7233 20.1183H30.3057V20.1214Z" fill="white"/>
<path d="M56.2277 25.8025H30.3057V22.9163C30.4396 22.91 30.5607 22.9006 30.6819 22.9006C38.197 22.9006 45.7122 22.9006 53.2273 22.8975C53.5239 22.8975 53.7726 22.9636 53.9671 23.1807C54.71 24.0148 55.4465 24.8489 56.183 25.6861C56.2053 25.7113 56.2085 25.7522 56.2277 25.8025Z" fill="white"/>
<path d="M0 0.0220337H21.1266V2.96487H0V0.0220337Z" fill="white"/>
<path d="M0.00683594 34.3635H21.127V37.2591H0.00683594V34.3635Z" fill="white"/>
<path d="M0 8.66171V5.83847C0.277394 5.7409 20.4793 5.70628 21.1234 5.80385V8.66171H0Z" fill="white"/>
<path d="M21.1334 40.0823V42.9654H0.0195312V40.0823H21.1365H21.1334Z" fill="white"/>
<path d="M80.7791 8.67742H60.6377V5.75662H61.1064C67.1676 5.75662 73.2288 5.75662 79.2869 5.75662C79.7173 5.75662 79.7205 5.75662 79.8672 6.15949C80.1637 6.98097 80.4602 7.80244 80.7759 8.67742H80.7791Z" fill="white"/>
<path d="M109.009 5.75664V8.67115H88.874C88.9856 8.33752 89.0845 8.02593 89.1929 7.71433C89.3937 7.15724 89.6042 6.60329 89.8051 6.0462C89.8752 5.85106 89.9836 5.73461 90.2132 5.75349C90.3981 5.76923 90.5894 5.75349 90.7743 5.75349C96.6634 5.75349 102.552 5.75349 108.441 5.75349C108.617 5.75349 108.789 5.75349 109.006 5.75349L109.009 5.75664Z" fill="white"/>
<path d="M78.7066 2.97116H60.6377V0.0314701C60.7206 0.0220278 60.8035 0.00943814 60.8864 0.00943814C66.3578 0.00943814 71.8323 0.00943814 77.3037 0.00314331C77.5555 0.00314331 77.6863 0.0723865 77.7692 0.308443C78.0593 1.1488 78.3654 1.97972 78.6651 2.81693C78.6811 2.861 78.6874 2.90506 78.7034 2.97116H78.7066Z" fill="white"/>
<path d="M90.9182 2.96802C91.2753 1.97028 91.6261 1.00088 91.9768 0.0220337H109.003V2.96802H90.915H90.9182Z" fill="white"/>
<path d="M66.6895 14.39V11.4944C66.8074 11.4849 66.9254 11.4692 67.0434 11.4692C71.842 11.4692 76.6406 11.4692 81.4392 11.4692C81.64 11.4692 81.7931 11.4723 81.8728 11.7084C82.1566 12.5362 82.4595 13.3576 82.7528 14.1823C82.7719 14.2389 82.7719 14.2987 82.7847 14.39H66.6895Z" fill="white"/>
<path d="M102.941 11.4692V14.3868H86.8398C86.8749 14.2609 86.8972 14.1571 86.9323 14.0564C87.1874 13.3356 87.4488 12.6148 87.7071 11.8972C87.8091 11.614 88.0089 11.4723 88.3065 11.4723C92.8947 11.4723 97.4829 11.4723 102.071 11.4723C102.355 11.4723 102.639 11.4723 102.945 11.4723L102.941 11.4692Z" fill="white"/>
<path d="M60.6377 40.0729H75.6776V42.9654H60.6377V40.0729Z" fill="white"/>
<path d="M60.6279 37.2497V34.3824H75.6805V37.2497H60.6279Z" fill="white"/>
<path d="M109 42.978H93.96V40.0792H109V42.978Z" fill="white"/>
<path d="M93.9629 34.3635H109.003V37.2497H93.9629V34.3635Z" fill="white"/>
<path d="M77.6191 22.9195H92.0468C91.7025 23.9046 91.3709 24.852 91.0297 25.8277C90.8639 25.8277 90.7172 25.8277 90.5674 25.8277C86.7062 25.8277 82.845 25.8277 78.9838 25.834C78.7223 25.834 78.5789 25.7679 78.4928 25.5098C78.2281 24.7135 77.9412 23.9267 77.667 23.1335C77.6478 23.0769 77.6415 23.0171 77.6223 22.9195H77.6191Z" fill="white"/>
<path d="M48.4932 28.6321C48.6685 28.6226 48.8024 28.61 48.9395 28.61C51.7262 28.61 54.5097 28.61 57.2964 28.6037C57.5356 28.6037 57.7141 28.6289 57.7588 28.8996C57.8927 29.677 58.033 30.4513 58.1637 31.2287C58.1796 31.3231 58.1573 31.4238 58.1509 31.5466H48.4932V28.6321Z" fill="white"/>
<path d="M79.6311 28.632H90.0382C89.7066 29.5637 89.3941 30.4701 89.0593 31.3672C89.0274 31.4553 88.8903 31.5245 88.7851 31.5591C88.6831 31.5938 88.5619 31.5749 88.4503 31.5749C86.0016 31.5749 83.5529 31.5749 81.101 31.5749C80.7906 31.5749 80.5866 31.4343 80.4888 31.1531C80.221 30.3978 79.9563 29.6424 79.6917 28.8838C79.6694 28.8146 79.6566 28.7454 79.6279 28.632H79.6311Z" fill="white"/>
<path d="M48.4902 14.4215V11.4944H58.0874C58.0874 11.7084 58.1129 11.9161 58.0811 12.1175C57.9822 12.7502 57.8738 13.3828 57.7463 14.0091C57.6634 14.4152 57.6442 14.4152 57.2265 14.4152C55.1636 14.4152 53.1039 14.4152 51.041 14.4152C50.3427 14.4152 49.6413 14.4152 48.943 14.4183C48.8059 14.4183 48.672 14.4183 48.4902 14.4183V14.4215Z" fill="white"/>
<path d="M30.3027 31.5403V28.6383H39.3101V31.5403H30.3027Z" fill="white"/>
<path d="M15.0811 31.5466H6.06738V28.6352H15.0811V31.5466Z" fill="white"/>
<path d="M75.6836 31.5497H66.6826V28.695C66.976 28.5911 75.2436 28.5659 75.6836 28.6698V31.5497Z" fill="white"/>
<path d="M102.949 31.5497H93.9541V28.6383H102.949V31.5497Z" fill="white"/>
<path d="M39.3068 14.3963H30.3154V11.4944H39.3068V14.3963Z" fill="white"/>
<path d="M15.0845 11.4912V14.3837H6.07715V11.4912H15.0845Z" fill="white"/>
<path d="M66.7051 22.9321H75.6965V25.7962H66.7051V22.9321Z" fill="white"/>
<path d="M6.06152 25.7994V22.9321H15.0848V25.7994H6.06152Z" fill="white"/>
<path d="M6.07031 20.0931V17.2101H15.0681V20.0931H6.07031Z" fill="white"/>
<path d="M93.9541 25.7962V22.9321H102.936V25.7962H93.9541Z" fill="white"/>
<path d="M88.0107 34.3698C87.6568 35.3675 87.322 36.318 86.9776 37.2843C86.611 37.2843 86.273 37.2843 85.9382 37.2843C84.9498 37.2843 83.9646 37.2843 82.9762 37.2874C82.804 37.2874 82.6573 37.278 82.5904 37.086C82.2906 36.2236 81.9877 35.3612 81.6912 34.502C81.6785 34.4705 81.6912 34.4296 81.6912 34.3698H88.0139H88.0107Z" fill="white"/>
<path d="M119.997 39.5064C120.08 41.3067 118.464 43.0283 116.461 43C114.535 42.9748 112.973 41.4106 112.98 39.4718C112.986 37.5928 114.564 36.0442 116.477 36.0411C118.604 36.0411 120.067 37.7973 119.997 39.5064ZM116.503 36.4723C115.042 36.4125 113.518 37.5267 113.496 39.456C113.471 41.4767 114.988 42.5814 116.49 42.5814C118.205 42.5814 119.49 41.2658 119.493 39.5064C119.493 37.769 118.221 36.4723 116.503 36.4723Z" fill="white"/>
<path d="M83.7031 40.0792H85.9414C85.951 40.1075 85.9701 40.1327 85.9669 40.1516C85.6608 41.0234 85.3579 41.8953 85.0423 42.7608C85.0104 42.8489 84.9147 42.915 84.8478 42.9906C84.7681 42.9119 84.6533 42.8489 84.6182 42.7545C84.3121 41.9236 84.022 41.0864 83.7286 40.2492C83.7127 40.2051 83.7127 40.1547 83.7031 40.0792Z" fill="white"/>
<path d="M117.067 39.6826C117.459 40.2838 117.823 40.8377 118.193 41.4043C117.845 41.505 117.644 41.4105 117.485 41.1241C117.258 40.715 116.981 40.331 116.748 39.9218C116.637 39.7267 116.506 39.6291 116.273 39.6543C116.079 39.6732 115.881 39.6574 115.648 39.6574V41.4074H115.23V37.6274C115.332 37.6148 115.415 37.5959 115.498 37.5959C115.999 37.5959 116.496 37.5896 116.997 37.5959C117.172 37.5959 117.348 37.6116 117.517 37.6494C118.059 37.7658 118.282 38.046 118.279 38.5842C118.279 39.1287 118.02 39.4654 117.523 39.585C117.392 39.6165 117.258 39.6417 117.067 39.6795V39.6826ZM115.674 37.8886V39.3395C116.225 39.3144 116.745 39.3018 117.262 39.2577C117.494 39.2388 117.673 39.1003 117.765 38.8674C117.96 38.3764 117.67 37.9264 117.099 37.8917C116.64 37.8634 116.177 37.8854 115.677 37.8854L115.674 37.8886Z" fill="white"/>
</g>
<defs>
<clipPath id="clip0_1815_1033">
<rect width="120" height="43" fill="white"/>
</clipPath>
</defs>
</svg>
