<svg width="160" height="51" viewBox="0 0 160 51" fill="none" xmlns="http://www.w3.org/2000/svg">
<g clip-path="url(#clip0_1815_932)">
<path d="M99.4201 0C99.4377 12.7386 99.4201 25.4771 99.4306 38.2016C99.0901 38.2932 95.2946 38.2967 94.9646 38.2121C94.9575 38.0924 94.947 37.962 94.947 37.8317C94.947 36.183 94.947 34.5308 94.947 32.8821C94.947 32.7447 94.9961 32.5897 94.8627 32.477C94.7118 32.5051 94.7118 32.6249 94.6872 32.7341C94.631 32.9948 94.5889 33.259 94.5222 33.5197C93.9885 35.5524 92.7491 37.0038 90.8741 37.9268C90.049 38.3319 89.1642 38.5644 88.2619 38.7229C87.9143 38.7828 87.5527 38.7934 87.198 38.8181C85.8744 38.9167 84.5753 38.7828 83.3078 38.3918C81.1168 37.7189 79.3964 36.4014 78.0973 34.5272C77.051 33.023 76.419 31.3391 76.0468 29.553C75.8572 28.6476 75.7554 27.7282 75.6887 26.8052C75.5307 24.5365 75.7519 22.3066 76.3874 20.1259C76.886 18.4138 77.6795 16.8497 78.8662 15.5075C80.3409 13.8412 82.1737 12.7914 84.3646 12.3757C86.3519 11.9988 88.3181 12.108 90.2141 12.8231C92.6297 13.732 94.1219 15.4617 94.6415 18.0122C94.6626 18.1214 94.6766 18.2342 94.7082 18.3398C94.7293 18.4068 94.782 18.4631 94.8452 18.5653C94.8908 18.4702 94.9329 18.4174 94.94 18.3645C94.954 18.2764 94.947 18.1884 94.947 18.0968C94.947 12.0657 94.947 6.03461 94.947 0.00352283H99.4236L99.4201 0ZM94.933 25.5299C94.933 25.5299 94.94 25.5299 94.9435 25.5299C94.9435 24.4379 94.9435 23.3458 94.9435 22.2502C94.9435 21.7253 94.9084 21.2039 94.803 20.6861C94.5994 19.6926 94.1921 18.7978 93.4548 18.0862C92.8123 17.4697 92.0679 17.0082 91.2288 16.7053C89.8875 16.2262 88.5006 16.0817 87.0857 16.1627C86.0288 16.2226 85.0177 16.4551 84.0837 16.9765C82.9496 17.6071 82.1035 18.5125 81.5031 19.6574C80.7096 21.1722 80.4076 22.8068 80.3339 24.4942C80.2847 25.6074 80.3058 26.7242 80.4497 27.8339C80.5832 28.8449 80.7973 29.8313 81.1976 30.7719C81.7488 32.0789 82.5704 33.1639 83.7958 33.9108C84.7894 34.5132 85.8814 34.795 87.0295 34.8584C87.4965 34.8866 87.9635 34.8725 88.4304 34.8584C89.417 34.8337 90.3791 34.6611 91.3025 34.3124C92.2435 33.9566 93.0756 33.4352 93.7251 32.6461C94.5222 31.6773 94.8838 30.5394 94.9189 29.3064C94.9575 28.0488 94.9259 26.7876 94.9259 25.5264L94.933 25.5299Z" fill="white"/>
<path d="M4.49398 0C4.49398 0.232507 4.49047 0.468536 4.49047 0.701043C4.49047 8.70491 4.49047 16.7088 4.49047 24.7162C4.49047 24.8219 4.4975 24.9311 4.50452 25.0544C4.69061 25.0367 4.76083 24.9099 4.84158 24.8148C5.31558 24.2547 5.78606 23.6875 6.26006 23.1239C8.04018 20.9961 9.8203 18.8718 11.6039 16.744C12.6397 15.504 13.6825 14.271 14.7112 13.0239C14.8692 12.8337 15.0343 12.7491 15.28 12.7491C16.8705 12.7562 18.4646 12.7562 20.0551 12.7597C20.1288 12.7597 20.2026 12.7773 20.3079 12.7914C20.1639 13.119 19.8795 13.2952 19.6864 13.5418C19.4828 13.806 19.2511 14.049 19.0334 14.3027C18.8227 14.5493 18.6191 14.7994 18.4084 15.0425C18.1977 15.2891 17.9836 15.5286 17.7694 15.7682C17.5482 16.0183 17.327 16.2684 17.1058 16.5185C16.8951 16.7616 16.688 17.0117 16.4738 17.2548C16.2631 17.4979 16.0454 17.7374 15.8348 17.984C15.6171 18.2377 15.4029 18.4913 15.1817 18.745C14.9711 18.9881 14.7534 19.2311 14.5427 19.4742C14.325 19.7278 14.1108 19.985 13.8931 20.2387C13.6825 20.4853 13.4718 20.7283 13.2576 20.9714C13.0435 21.2145 12.8293 21.454 12.6186 21.7006C12.3974 21.9508 12.1797 22.2044 11.9621 22.458C11.7514 22.7046 11.5477 22.9512 11.3336 23.1978C11.1229 23.4409 10.9052 23.684 10.6946 23.9271C10.4734 24.1772 10.2522 24.4273 10.0345 24.6809C9.82381 24.924 9.62016 25.1671 9.40599 25.4172C9.51132 25.5335 9.61665 25.4947 9.70794 25.4947C10.8315 25.4947 11.955 25.4947 13.0821 25.4912C13.1593 25.4912 13.2366 25.4982 13.3173 25.4912C13.528 25.4771 13.672 25.5652 13.7878 25.7448C14.0371 26.1253 14.3039 26.4987 14.5673 26.8721C17.0953 30.4901 19.6232 34.1045 22.1477 37.7225C22.253 37.8739 22.3584 38.0289 22.4883 38.2192C22.3654 38.2403 22.2917 38.265 22.2214 38.265C20.7082 38.265 19.1949 38.265 17.6816 38.272C17.4218 38.272 17.2778 38.1558 17.1409 37.9585C15.5855 35.6863 14.0266 33.4211 12.4677 31.1524C11.3265 29.4896 10.1854 27.8268 9.03732 26.1676C8.69324 25.6709 8.83017 25.7625 8.26138 25.7625C7.14836 25.7625 6.03535 25.7625 4.92234 25.7625C4.80296 25.7625 4.68007 25.7625 4.52558 25.7625C4.51505 25.9315 4.4975 26.0725 4.4975 26.2134C4.4975 28.2637 4.4975 30.3175 4.4975 32.3678C4.4975 34.1855 4.4975 36.0033 4.4975 37.8211C4.4975 38.265 4.4975 38.2685 4.05861 38.272C2.85782 38.272 1.65352 38.272 0.452729 38.272C0.396552 38.272 0.340375 38.272 0.284197 38.272C0.0419328 38.2579 0.0173552 38.2333 0.00682193 37.9972C0.00331085 37.9197 0.00682193 37.8422 0.00682193 37.7647C0.00682193 25.3327 0.00682193 12.9041 0.00682193 0.472059C-0.000200234 0.310009 0.0138441 0.155004 0.0173552 0H4.49398Z" fill="white"/>
<path d="M152.725 0C152.711 0.144436 152.686 0.288872 152.686 0.429785C152.686 0.831388 152.704 1.23299 152.704 1.63459C152.704 13.4502 152.704 25.2693 152.704 37.0848C152.704 37.3526 152.707 37.6203 152.704 37.888C152.704 37.9972 152.69 38.1029 152.686 38.1804C152.648 38.2192 152.641 38.2297 152.63 38.2333C152.62 38.2403 152.609 38.2474 152.599 38.2474C152.465 38.2544 152.332 38.2685 152.202 38.2685C150.92 38.2685 149.642 38.2685 148.361 38.2615C148.329 38.2615 148.298 38.2438 148.231 38.2262C148.22 38.1417 148.203 38.0466 148.203 37.9514C148.206 35.9787 148.22 34.0059 148.22 32.0331C148.22 21.7535 148.22 11.4774 148.22 1.19776C148.22 0.863093 148.22 0.528424 148.22 0.193756C148.22 0.130345 148.196 0.0634109 148.182 0C149.695 0 151.212 0 152.725 0Z" fill="white"/>
<path d="M22.2572 12.8302C22.5662 12.7386 26.3406 12.7209 26.8357 12.8055C26.8673 12.883 26.9094 12.9711 26.9375 13.0662C28.9037 19.3403 30.8699 25.6145 32.8326 31.8887C33.3838 33.643 33.9316 35.3974 34.4828 37.1518C34.5284 37.2962 34.546 37.4583 34.697 37.571C34.8339 37.4935 34.8409 37.349 34.876 37.2328C35.1183 36.4789 35.35 35.7215 35.5853 34.9676C36.6983 31.4025 37.8113 27.8409 38.9208 24.2758C40.0865 20.5416 41.2487 16.8074 42.4143 13.0732C42.5056 12.7773 42.5091 12.7632 42.797 12.7597C44.1558 12.7597 45.5146 12.7597 46.8699 12.7632C46.9331 12.7632 46.9998 12.7773 47.0595 12.7879C47.1473 12.9288 47.063 13.038 47.0279 13.1472C46.6803 14.2181 46.3222 15.2856 45.9781 16.3565C45.2162 18.7203 44.4613 21.0877 43.6994 23.455C42.8005 26.2557 41.8947 29.0563 40.9923 31.8534C39.6827 35.9153 38.3731 39.9771 37.0634 44.0389C36.3472 46.2548 35.6309 48.4706 34.9111 50.6865C34.8128 50.9894 34.8128 50.9965 34.4898 50.9965C33.2329 50.9965 31.9759 50.9965 30.7154 50.9965C30.6171 50.9965 30.5188 50.9824 30.3783 50.9718C30.417 50.8274 30.4451 50.7111 30.4802 50.6019C31.1578 48.5376 31.839 46.4732 32.5201 44.4088C33.1556 42.4818 33.7876 40.5548 34.4231 38.6278C34.4582 38.5257 34.4828 38.42 34.5249 38.2685C34.3669 38.2685 34.2476 38.2685 34.1282 38.2685C33.0257 38.2685 31.9232 38.2685 30.8207 38.2685C30.754 38.2685 30.6873 38.265 30.6206 38.265C30.4942 38.265 30.4099 38.2121 30.3748 38.0853C30.3538 38.0113 30.3257 37.9374 30.3011 37.8634C28.858 33.3894 27.415 28.9119 25.9684 24.4379C24.7571 20.6825 23.5458 16.9307 22.3345 13.1754C22.2993 13.0627 22.2713 12.9464 22.2432 12.8302H22.2572Z" fill="white"/>
<path d="M145.355 12.8055C145.345 12.8865 145.345 12.9534 145.324 13.0133C141.244 25.6638 137.168 38.3143 133.095 50.9436C132.786 51.0106 129.011 51.0141 128.685 50.9577C128.629 50.8309 128.713 50.7217 128.748 50.6125C129.763 47.5335 130.777 44.4511 131.792 41.3721C132.083 40.4844 132.378 39.5931 132.666 38.7018C132.705 38.5785 132.73 38.4517 132.768 38.2826C132.607 38.2755 132.491 38.265 132.371 38.265C131.346 38.265 130.324 38.265 129.299 38.265C129.222 38.265 129.145 38.265 129.064 38.265C128.706 38.2579 128.702 38.2579 128.593 37.9233C128.397 37.3209 128.204 36.7149 128.007 36.109C125.739 29.0774 123.467 22.0459 121.199 15.0143C120.995 14.3872 120.795 13.7637 120.595 13.1366C120.564 13.0345 120.543 12.9288 120.504 12.7879C120.651 12.7738 120.757 12.7562 120.866 12.7562C122.168 12.7562 123.471 12.7562 124.773 12.7632C125.103 12.7632 125.107 12.7773 125.209 13.1014C127.628 20.8234 130.044 28.542 132.463 36.264C132.564 36.5952 132.666 36.9228 132.772 37.2539C132.803 37.3561 132.856 37.4547 132.898 37.5569C133.081 37.5181 133.084 37.3772 133.119 37.2715C133.312 36.6656 133.502 36.0597 133.688 35.4538C135.647 29.1761 137.603 22.9019 139.562 16.6242C139.931 15.4441 140.299 14.2639 140.668 13.0838C140.766 12.7703 140.766 12.7597 141.075 12.7597C142.424 12.7597 143.768 12.7597 145.117 12.7667C145.19 12.7667 145.264 12.7914 145.352 12.8055H145.355Z" fill="white"/>
<path d="M71.366 38.2086C71.036 38.2861 67.3072 38.2967 66.928 38.2298C66.914 38.1663 66.8894 38.0959 66.8824 38.0219C66.8754 37.9233 66.8824 37.8211 66.8824 37.7225C66.8824 32.7518 66.8824 27.7775 66.8824 22.8068C66.8824 21.9226 66.8332 21.0454 66.612 20.1858C66.5137 19.8089 66.3908 19.4355 66.2399 19.0797C65.7939 18.0228 65.0004 17.3006 63.9822 16.811C63.2203 16.4446 62.4058 16.2684 61.5701 16.1945C60.8925 16.1346 60.2148 16.117 59.5372 16.1945C58.1047 16.3565 56.8021 16.811 55.8225 17.9383C55.1764 18.6816 54.8183 19.5623 54.6111 20.5099C54.5023 20.9996 54.4567 21.4998 54.4567 22.0036C54.4567 27.2561 54.4567 32.5052 54.4567 37.7577C54.4567 37.8704 54.4567 37.9796 54.4531 38.0924C54.4496 38.198 54.3899 38.2579 54.2881 38.265C54.2004 38.272 54.1091 38.272 54.0213 38.2756C52.7959 38.2756 51.5741 38.2756 50.3487 38.2756C50.2398 38.2756 50.131 38.265 50.0292 38.2579C49.9168 38.0607 49.9484 37.8669 49.9484 37.6802C49.9484 35.8166 49.9484 33.9566 49.9484 32.093C49.9484 26.0267 49.9484 19.9639 49.9484 13.8976C49.9484 13.6404 49.9414 13.3832 49.9484 13.1296C49.9484 13.0204 49.966 12.9147 49.973 12.8161C50.2609 12.7421 54.0459 12.735 54.4005 12.802C54.5058 12.9112 54.4672 13.0521 54.4672 13.1824C54.4672 14.8311 54.4672 16.4833 54.4672 18.132C54.4672 18.2588 54.4356 18.3962 54.5409 18.5125C54.7024 18.4596 54.6954 18.3222 54.72 18.213C54.7762 17.9735 54.8113 17.7304 54.871 17.4944C55.5732 14.7149 57.9607 12.6047 60.8082 12.2348C61.5842 12.1326 62.3601 12.1643 63.1396 12.2207C63.8769 12.2735 64.5967 12.4004 65.3024 12.6153C67.8444 13.3903 69.5859 15.039 70.5725 17.5014C71.0149 18.6076 71.2467 19.7631 71.3204 20.9503C71.3625 21.6161 71.3766 22.2854 71.3766 22.9548C71.3801 27.8938 71.3766 32.8328 71.3766 37.7718V38.2121L71.366 38.2086Z" fill="white"/>
<path d="M105.213 12.802C105.511 12.7385 109.254 12.7385 109.623 12.809C109.633 12.9393 109.651 13.0767 109.655 13.2176C109.655 14.8452 109.655 16.4727 109.655 18.1003C109.655 18.213 109.658 18.3222 109.676 18.4314C109.679 18.4596 109.735 18.5019 109.77 18.5019C109.802 18.5019 109.855 18.4631 109.869 18.4314C109.893 18.3575 109.9 18.28 109.911 18.2024C110.311 15.1904 112.527 12.8372 115.511 12.2806C116.582 12.0798 117.66 12.1009 118.724 12.3616C119.005 12.4321 119.008 12.4391 119.029 12.7139C119.04 12.8689 119.043 13.0274 119.043 13.1824C119.043 14.2639 119.043 15.3454 119.043 16.4269C119.043 16.5256 119.033 16.6207 119.026 16.7546C118.878 16.737 118.762 16.7264 118.643 16.7052C117.786 16.5538 116.926 16.4481 116.055 16.4763C115.019 16.508 113.987 16.6066 113.001 16.9448C111.73 17.3781 110.775 18.1707 110.209 19.4143C109.841 20.221 109.7 21.07 109.669 21.9472C109.658 22.2361 109.662 22.5285 109.662 22.8174C109.662 27.8127 109.662 32.8046 109.662 37.7999C109.662 37.9338 109.662 38.0642 109.662 38.2192C109.549 38.2368 109.465 38.265 109.381 38.265C108.068 38.2685 106.754 38.272 105.441 38.2685C105.368 38.2685 105.29 38.2473 105.241 38.2403C105.213 38.2121 105.206 38.2051 105.199 38.1945C105.192 38.1839 105.188 38.1734 105.188 38.1628C105.181 38.1205 105.171 38.0747 105.171 38.0325C105.171 29.6939 105.171 21.3554 105.171 13.0168C105.171 12.971 105.178 12.9288 105.185 12.883C105.188 12.8618 105.202 12.8442 105.22 12.802H105.213Z" fill="white"/>
<path d="M157.167 35.5947C157.184 35.5841 157.205 35.5665 157.223 35.563C157.774 35.4643 157.858 35.5136 157.988 36.0526C158.129 36.6374 158.259 37.2257 158.396 37.8105C158.417 37.8951 158.448 37.9761 158.49 38.117C158.54 38.0078 158.571 37.9585 158.585 37.9021C158.754 37.2328 158.915 36.5599 159.087 35.8906C159.119 35.7673 159.112 35.5912 159.277 35.57C159.46 35.5454 159.653 35.5559 159.835 35.5806C159.874 35.5841 159.919 35.7039 159.923 35.7743C159.937 35.9399 159.93 36.109 159.937 36.2746C159.955 36.7854 159.976 37.2997 159.993 37.8105C159.997 37.9409 159.993 38.0712 159.993 38.1945C159.649 38.2967 159.607 38.272 159.593 37.9655C159.568 37.3878 159.551 36.8065 159.533 36.2288C159.53 36.1055 159.533 35.9857 159.533 35.8096C159.393 35.947 159.389 36.0843 159.358 36.2006C159.196 36.7924 159.045 37.3843 158.887 37.9761C158.813 38.2474 158.813 38.2474 158.526 38.2544C158.505 38.2544 158.48 38.2544 158.459 38.2544C158.185 38.2544 158.153 38.2403 158.087 37.9796C157.981 37.5815 157.89 37.1799 157.788 36.7783C157.711 36.4683 157.627 36.1583 157.49 35.8518C157.483 35.8871 157.476 35.9223 157.476 35.961C157.455 36.6057 157.434 37.2539 157.413 37.8986C157.413 37.9303 157.413 37.9655 157.413 37.9972C157.399 38.2579 157.367 38.2791 157.079 38.2121C157.016 37.8669 157.076 35.9434 157.163 35.5911L157.167 35.5947Z" fill="white"/>
<path d="M155.906 35.8906C155.857 36.6868 155.906 37.4406 155.874 38.2333C155.759 38.2403 155.657 38.2474 155.534 38.2579C155.443 37.8422 155.499 37.4512 155.488 37.0672C155.481 36.6903 155.488 36.3133 155.488 35.9153C155.407 35.8976 155.334 35.873 155.26 35.8695C155.127 35.8624 154.993 35.8695 154.86 35.8695C154.758 35.8695 154.684 35.8272 154.688 35.7145C154.688 35.6017 154.761 35.5595 154.86 35.5524C154.993 35.5454 155.127 35.5383 155.26 35.5383C155.615 35.5383 155.973 35.5383 156.327 35.5383C156.405 35.5383 156.492 35.5278 156.559 35.5559C156.619 35.5841 156.678 35.651 156.692 35.7145C156.714 35.8025 156.643 35.8554 156.552 35.8624C156.475 35.8695 156.398 35.8659 156.32 35.8695C156.201 35.873 156.078 35.88 155.906 35.8871V35.8906Z" fill="white"/>
</g>
<defs>
<clipPath id="clip0_1815_932">
<rect width="160" height="51" fill="white"/>
</clipPath>
</defs>
</svg>
