<svg width="174" height="44" viewBox="0 0 174 44" fill="none" xmlns="http://www.w3.org/2000/svg">
<g clip-path="url(#clip0_1815_1073)">
<path d="M31.7878 43.9148C29.6326 43.9797 27.4977 43.7486 25.3669 43.4891C22.3333 43.1201 19.3688 42.4632 16.4817 41.4494C13.3301 40.3465 10.3942 38.8462 7.76315 36.7863C5.10775 34.7061 2.97285 32.2042 1.57806 29.1184C0.801362 27.4032 0.260522 25.6109 0.118195 23.7213C0.0409325 22.6833 -0.0281974 21.6371 0.0043343 20.599C0.0856636 18.0039 0.83796 15.5952 2.17989 13.365C3.28597 11.52 4.69297 9.92646 6.31549 8.51535C9.67032 5.59174 13.566 3.65754 17.7748 2.27887C19.7796 1.62197 21.825 1.13538 23.903 0.790711C25.4563 0.531196 27.0138 0.291956 28.5997 0.29601C29.1365 0.29601 29.7017 0.29601 30.206 0.150033C31.0477 -0.101372 31.8854 0.0648797 32.7231 8.83359e-07C32.8044 -0.00810897 32.9264 -0.0162188 32.9671 0.0283854C33.2233 0.30412 33.5608 0.198692 33.8658 0.227077C34.3822 0.271681 34.9027 0.263571 35.4192 0.31223C36.7245 0.433878 38.0339 0.519031 39.3271 0.721778C40.7666 0.948853 42.202 1.22864 43.609 1.59764C47.6389 2.65598 51.4492 4.22118 54.9057 6.58115C56.6868 7.79762 58.3378 9.16413 59.7244 10.8226C61.3632 12.7811 62.5872 14.9667 63.2541 17.4362C63.551 18.527 63.673 19.6421 63.6893 20.7734C63.7136 22.5129 63.6405 24.2403 63.2257 25.9434C62.754 27.8857 61.9732 29.6983 60.9078 31.3851C58.8542 34.6412 56.0158 37.062 52.7057 38.9719C49.3021 40.9345 45.6219 42.1712 41.7791 42.9336C40.3071 43.2255 38.8228 43.4769 37.3304 43.6269C35.4883 43.8135 33.6381 43.8743 31.7878 43.9878C31.7878 43.9595 31.7878 43.9311 31.7878 43.9027V43.9148ZM1.26087 19.488C1.23647 19.5529 1.21614 19.5812 1.21614 19.6096C1.07788 20.7815 1.15514 21.9453 1.36253 23.0969C1.71225 25.0513 2.50928 26.8314 3.61942 28.4777C5.40867 31.1256 7.77128 33.1612 10.4755 34.8278C13.6067 36.7579 16.99 38.092 20.5563 38.9759C22.5976 39.4828 24.6593 39.8964 26.7657 40.0546C28.1565 40.16 29.5472 40.3262 30.942 40.3425C32.5076 40.3587 34.0772 40.3019 35.6347 40.164C37.3386 40.0181 39.0424 39.8194 40.7219 39.5112C44.1092 38.8908 47.3705 37.8608 50.4692 36.3484C53.7671 34.7426 56.7356 32.6908 59.0819 29.8402C61.3917 27.0301 62.7052 23.8551 62.5384 20.1651C62.5222 19.8164 62.4815 19.7759 62.1399 19.8691C59.9481 20.4652 57.7359 21.0045 55.5685 21.6736C53.6939 22.2534 51.864 22.9874 50.0137 23.6483C49.786 23.7294 49.7087 23.8349 49.8429 24.066C50.5342 25.2703 50.0463 26.9288 48.8426 27.6586C48.1188 28.0966 47.3502 28.3115 46.5125 28.2182C46.2522 28.1898 46.236 28.2912 46.1872 28.5021C46.0815 28.9441 46.0123 29.4428 45.7602 29.7996C44.9266 30.9756 43.7798 31.5635 42.2956 31.4095C42.202 31.4013 42.0353 31.4824 42.0109 31.5554C41.6693 32.6868 40.8235 33.2828 39.7744 33.664C39.2213 33.8667 38.648 33.7938 38.0786 33.7329C37.9811 33.7208 37.8265 33.7573 37.7777 33.8262C37.2288 34.5763 36.4317 34.7953 35.5615 34.8724C34.4473 34.9697 33.4225 34.6615 32.4507 34.1546C32.2392 34.0452 32.0806 34.0289 31.8773 34.1952C30.0148 35.7401 27.396 35.2292 26.2696 33.0963C26.1558 32.8814 26.0419 32.8733 25.8467 32.9219C24.5373 33.2382 22.8863 32.5286 22.256 31.3446C22.1096 31.0688 21.9429 31.0202 21.6583 31.0202C21.2394 31.0202 20.7962 31.0202 20.4058 30.8945C19.2062 30.5052 18.3685 29.7226 18.0188 28.4818C17.9659 28.2993 17.8846 28.2061 17.6853 28.2263C17.5796 28.2385 17.4739 28.2263 17.3681 28.2263C15.6643 28.2953 13.8872 26.5882 14.363 24.5647C14.5094 23.9484 14.4932 23.9443 13.932 23.5875C13.8506 23.5348 13.7734 23.4861 13.688 23.4375C12.1509 22.5697 10.5121 21.925 8.82856 21.4343C6.58794 20.7856 4.31479 20.2422 2.05383 19.6542C1.79358 19.5853 1.52926 19.5366 1.26494 19.4799L1.26087 19.488ZM24.2364 16.909C23.1385 16.9131 22.2438 16.7387 21.4224 16.2805C20.54 15.7899 20.1496 14.8937 20.9873 14.0179C21.9632 12.992 22.9311 11.958 23.8948 10.924C23.9721 10.8429 23.9924 10.7131 24.0412 10.6036C23.9274 10.5955 23.8054 10.555 23.6996 10.5834C23.1873 10.7091 22.6708 10.8348 22.1706 11.001C20.3855 11.5809 18.5677 11.6417 16.7541 11.2119C15.1519 10.8348 13.5538 10.4131 11.9801 9.93457C10.7154 9.55341 9.48327 9.07087 8.24706 8.60455C8.01121 8.51534 7.86888 8.5194 7.67775 8.66943C5.85598 10.1049 4.32699 11.7958 3.11518 13.7665C2.32629 15.0519 1.73665 16.4184 1.4398 17.9025C1.4032 18.085 1.38287 18.2309 1.61872 18.2958C2.20023 18.4499 2.7736 18.6486 3.35917 18.7784C6.0227 19.3744 8.65777 20.084 11.2034 21.0694C12.5168 21.5763 13.8141 22.1237 14.9689 22.9468C15.1763 23.0928 15.2983 22.9752 15.4406 22.8617C16.7216 21.8398 18.3604 21.9331 19.5112 23.105C19.682 23.2793 19.8243 23.3158 20.0317 23.182C20.7352 22.7279 21.5037 22.5819 22.3374 22.7197C23.3377 22.8819 24.1632 23.3118 24.7081 24.1876C24.822 24.3661 24.9521 24.3944 25.1351 24.3377C25.6881 24.1714 26.2452 24.1795 26.7983 24.3093C27.8922 24.5688 28.7624 25.1324 29.104 26.2516C29.2382 26.6855 29.23 27.1599 29.2666 27.6181C29.2829 27.8127 29.3073 27.9425 29.5472 27.9425C30.3849 27.9384 31.1209 28.2263 31.7594 28.7454C32.8736 29.6496 33.4795 31.3608 32.8207 32.8287C32.78 32.9179 32.8248 33.1328 32.8939 33.1652C33.8048 33.6234 34.7563 33.9478 35.7933 33.741C36.1064 33.6802 36.4155 33.5383 36.692 33.3801C36.9644 33.2261 36.9685 33.0112 36.7611 32.776C36.5375 32.5246 36.3016 32.2772 36.0779 32.0299C35.468 31.3567 34.8539 30.6877 34.2562 30.0065C34.1952 29.9335 34.187 29.7104 34.244 29.6658C34.3375 29.5928 34.5083 29.5685 34.6344 29.5969C34.7482 29.6212 34.8458 29.7307 34.9393 29.8159C35.8258 30.635 36.7042 31.4581 37.5907 32.2691C37.7574 32.4232 37.9404 32.63 38.1437 32.6665C39.0505 32.8449 39.8964 32.7435 40.5348 31.969C40.9414 31.4784 40.9577 30.931 40.5348 30.4525C39.5995 29.3901 38.652 28.3399 37.7167 27.2775C37.5907 27.1356 37.4646 26.9896 37.3833 26.8193C37.3467 26.7422 37.3833 26.5881 37.4483 26.5192C37.489 26.4706 37.6557 26.4706 37.7208 26.5152C37.9607 26.6652 38.2006 26.8274 38.4121 27.018C39.3962 27.9303 40.3599 28.863 41.3522 29.7713C41.5799 29.9781 41.8564 30.1768 42.1492 30.266C43.117 30.566 44.4427 29.9862 44.9306 29.0941C45.2641 28.4818 45.1787 27.7073 44.5525 27.0788C43.5968 26.1218 42.6494 25.1568 41.6978 24.1917C41.2912 23.7781 40.8845 23.3604 40.4779 22.9428C40.3437 22.8049 40.2542 22.663 40.4169 22.4765C40.5795 22.298 40.7015 22.4278 40.8276 22.517C40.9496 22.5981 41.0756 22.6833 41.1854 22.7806C42.625 24.0417 44.0523 25.3149 45.5 26.5638C45.748 26.7787 46.053 26.9693 46.3661 27.0585C47.1306 27.2775 47.8178 27.0585 48.4441 26.58C49.2533 25.9677 49.2452 24.7878 48.6433 24.143C48.4563 23.9443 48.257 23.7497 48.0496 23.5713C46.3824 22.1358 44.7192 20.7004 43.0479 19.2731C41.3725 17.8457 39.7093 16.4103 38.0055 15.0194C37.0824 14.2652 36.1064 13.5759 35.1223 12.8987C34.5734 12.5216 33.9146 12.3432 33.2558 12.3716C32.5279 12.4 31.796 12.5865 31.1819 13.0001C29.9864 13.8111 28.8152 14.6626 27.6441 15.5141C26.5787 16.2927 25.4807 16.9658 24.2405 16.9009L24.2364 16.909ZM62.3514 18.3607C62.3392 18.2309 62.3392 18.1661 62.327 18.1052C61.9041 16.0372 60.9973 14.1922 59.7529 12.4973C58.8542 11.2767 57.7888 10.2103 56.6461 9.20874C56.3981 8.99383 56.1948 8.8519 55.8816 9.07898C55.7474 9.1763 55.5726 9.21279 55.4181 9.27767C53.2018 10.2103 50.9205 10.8915 48.5051 11.0172C46.606 11.1146 44.7233 10.9645 42.873 10.4779C41.3806 10.0846 40.0021 9.40743 38.5788 8.84379C36.1715 7.89089 33.7031 7.4489 31.0965 7.91116C28.9576 8.29232 27.1236 9.2209 25.5987 10.7253C24.2852 12.0229 23.0409 13.3934 21.7681 14.7315C21.4956 15.0194 21.4997 15.1451 21.8413 15.3479C23.0165 16.0535 24.2852 16.1183 25.4889 15.5628C26.3713 15.1573 27.1602 14.5369 27.941 13.9489C28.9616 13.1826 29.9295 12.3351 31.0884 11.7674C31.9546 11.3457 32.8654 11.1024 33.8495 11.2565C34.8865 11.4187 35.7689 11.9134 36.57 12.55C37.9933 13.6773 39.4043 14.8248 40.8032 15.9845C42.3525 17.278 43.8856 18.5878 45.4146 19.9056C46.4556 20.8018 47.4803 21.7182 48.5132 22.6224C48.7206 22.8049 48.9158 22.9103 49.2248 22.7927C50.9653 22.1075 52.7057 21.4262 54.4624 20.7855C56.9389 19.8854 59.4845 19.2203 62.0464 18.6243C62.2579 18.5756 62.388 18.527 62.3514 18.3566V18.3607ZM55.2513 8.19501C55.0683 8.03686 54.9464 7.90711 54.804 7.80573C52.3235 6.02157 49.5949 4.70777 46.7158 3.68998C44.0564 2.74924 41.3196 2.12478 38.5341 1.70712C36.5619 1.41112 34.5774 1.25703 32.593 1.26108C30.637 1.26108 28.681 1.39084 26.7332 1.55304C25.3669 1.66658 24.0046 1.88554 22.6586 2.141C20.3611 2.57893 18.1245 3.25611 15.9327 4.0752C13.5416 4.97134 11.3254 6.19593 9.19048 7.5746C9.04409 7.66787 9.02782 7.76924 9.19861 7.85439C9.26368 7.88683 9.33687 7.90711 9.406 7.93144C11.8499 8.79919 14.3346 9.52097 16.8598 10.1089C18.4458 10.4779 20.0073 10.486 21.5891 10.0157C22.6301 9.70749 23.7037 9.52502 24.7691 9.30606C25.2652 9.20468 25.7451 9.19252 26.2005 8.83974C28.6404 6.9542 31.4828 6.44328 34.4758 6.67846C36.2772 6.82039 38.0095 7.33536 39.6524 8.09769C41.5067 8.95733 43.4139 9.59396 45.4593 9.83725C46.8785 10.0076 48.2895 9.99539 49.7006 9.7967C51.1727 9.5899 52.5959 9.19252 53.9907 8.6816C54.3933 8.53562 54.7918 8.37748 55.2554 8.19906L55.2513 8.19501ZM19.3363 25.1487C19.3241 24.9986 19.3526 24.7959 19.2916 24.6256C18.9825 23.7984 18.401 23.2631 17.4983 23.182C16.6524 23.1009 16.0099 23.5226 15.587 24.2039C14.9567 25.2135 15.4203 26.3611 16.3963 26.9369C17.1038 27.3545 18.0635 27.2288 18.5921 26.7382C18.6653 26.6692 18.7792 26.6409 18.8768 26.5963C18.8971 26.7098 18.9459 26.8274 18.9297 26.9369C18.8443 27.5492 18.9134 28.1412 19.2184 28.6805C19.9544 29.9781 21.2679 30.3268 22.5692 29.601C22.6586 29.5523 22.7765 29.5523 22.8782 29.528C22.8985 29.6456 22.927 29.7632 22.9392 29.8848C22.9636 30.0916 22.9311 30.3106 23.0002 30.5012C23.5004 31.9204 25.3628 32.3907 26.4811 31.3973C26.5584 31.3284 26.6803 31.304 26.782 31.2594C26.8308 31.3648 26.9203 31.4743 26.9203 31.5798C26.9406 32.9665 28.2134 34.1019 29.6001 34.0533C31.0681 34.0006 32.4791 32.5327 31.979 30.8174C31.6414 29.6618 30.5191 28.79 29.1487 28.9968C28.8803 29.0373 28.6241 29.159 28.3598 29.2198C28.2581 29.2441 28.1239 29.232 28.0345 29.1833C27.9938 29.159 28.0141 28.9887 28.0507 28.9035C28.2622 28.3885 28.3273 27.8492 28.311 27.2978C28.2866 26.5273 27.9572 25.9475 27.2822 25.5623C26.473 25.1 25.2652 25.0351 24.5455 25.7934C24.4845 25.8583 24.3543 25.8907 24.2649 25.8785C24.2242 25.8745 24.1795 25.7285 24.1713 25.6434C24.1103 24.954 23.781 24.4066 23.1873 24.07C22.2886 23.5632 21.3492 23.5632 20.479 24.1268C20.0479 24.4066 19.7023 24.8121 19.3322 25.1487H19.3363Z" fill="white"/>
<path d="M83.3339 7.40024C83.8869 6.98258 84.3627 6.54059 84.9158 6.22431C85.9568 5.62418 87.0954 5.47415 88.2909 5.63229C89.8037 5.83098 91.0561 6.47977 91.9589 7.71652C92.5729 8.55995 92.9308 9.51691 93.0162 10.555C93.069 11.1916 93.0812 11.8363 93.0853 12.477C93.0934 14.6991 93.0894 16.9253 93.0894 19.1474C93.0894 19.4231 92.9484 19.561 92.6664 19.561C91.841 19.561 91.0114 19.5529 90.1859 19.561C89.9338 19.561 89.8321 19.5001 89.8321 19.2285C89.8403 16.7955 89.8199 14.3585 89.8484 11.9255C89.8565 11.2646 89.8646 10.6239 89.5434 10.0238C89.0514 9.10331 88.2218 8.77891 87.2336 8.81946C86.3309 8.85596 85.6396 9.25739 85.2289 10.0887C84.9605 10.6361 84.9239 11.2078 84.928 11.8079C84.9483 14.2531 84.9361 16.6982 84.9361 19.1433C84.9361 19.196 84.9361 19.2487 84.9361 19.3014C84.9524 19.492 84.8588 19.561 84.6718 19.561C83.769 19.5569 82.8703 19.5529 81.9676 19.561C81.7317 19.561 81.6829 19.4596 81.687 19.2528C81.6951 18.7986 81.687 18.3445 81.687 17.8944C81.687 15.6926 81.687 13.4867 81.687 11.2849C81.687 10.632 81.504 10.0359 81.0486 9.54529C80.3613 8.8073 79.487 8.69376 78.5639 8.8884C77.6246 9.08709 77.1325 9.76832 76.8682 10.6361C76.8113 10.8226 76.795 11.0294 76.795 11.2281C76.791 13.8719 76.7869 16.5198 76.795 19.1636C76.795 19.4596 76.7259 19.5731 76.4087 19.565C75.5629 19.5447 74.713 19.5488 73.8631 19.565C73.611 19.565 73.5378 19.4799 73.5378 19.2366C73.5459 16.5482 73.4646 13.8597 73.5663 11.1754C73.6639 8.49507 75.201 6.19998 78.1939 5.66473C80.0523 5.33223 81.7033 5.78232 83.0574 7.14478C83.1387 7.22588 83.2241 7.30698 83.3095 7.38402C83.3339 7.40429 83.3664 7.4124 83.338 7.40024H83.3339Z" fill="white"/>
<path d="M155.485 7.46917C155.485 6.31352 155.485 5.15787 155.485 3.99816C155.485 2.40457 156.384 1.44761 157.994 1.33813C158.218 1.32191 158.442 1.33407 158.661 1.31785C158.901 1.30163 159.015 1.38273 158.995 1.63819C158.975 1.86932 158.991 2.10045 158.991 2.33158C158.991 6.26081 159.015 10.1941 158.979 14.1233C158.962 15.8791 158.287 17.3875 156.892 18.5148C156.128 19.1311 155.229 19.4515 154.27 19.6542C152.671 19.9989 151.118 19.8326 149.581 19.3461C147.93 18.823 146.905 17.6754 146.312 16.0981C145.771 14.6667 145.706 13.1826 145.868 11.6822C146.023 10.2955 146.393 8.97355 147.222 7.82195C148.666 5.81882 151.321 5.04838 153.485 5.99724C154.054 6.24864 154.538 6.61764 154.945 7.09207C155.083 7.25426 155.254 7.38808 155.408 7.53405C155.433 7.50972 155.457 7.48945 155.481 7.46512L155.485 7.46917ZM149.382 12.7892C149.398 13.7097 149.492 14.6058 149.878 15.4655C150.642 17.1645 152.676 17.3064 153.83 16.7103C154.693 16.2643 155.124 15.4898 155.347 14.5937C155.595 13.6043 155.583 12.6027 155.433 11.589C155.189 9.96701 154.274 8.933 152.7 8.66132C151.785 8.50318 150.687 8.86001 150.162 9.77643C149.626 10.7172 149.361 11.7147 149.378 12.7892H149.382Z" fill="white"/>
<path d="M115.528 28.4372C115.666 28.3034 115.817 28.1817 115.939 28.0317C116.898 26.8639 118.167 26.3651 119.643 26.4624C121.611 26.5963 123.112 27.5411 124.084 29.2603C125.044 30.9553 125.275 32.8043 125.125 34.7021C125.007 36.2064 124.511 37.6013 123.502 38.7732C122.933 39.4382 122.189 39.8356 121.376 40.1032C119.493 40.7196 117.594 40.7925 115.703 40.1559C113.698 39.4828 112.535 38.0474 112.104 36.0199C112.006 35.5617 111.974 35.0832 111.974 34.6128C111.962 31.377 111.998 28.1412 111.954 24.9054C111.929 23.2509 112.84 22.4197 114.263 22.1561C114.552 22.1034 114.853 22.1034 115.146 22.071C115.414 22.0426 115.491 22.1602 115.491 22.4156C115.479 23.405 115.491 24.3985 115.479 25.3879C115.467 26.3124 115.439 27.241 115.418 28.1655C115.418 28.2344 115.435 28.3074 115.439 28.3804C115.467 28.3966 115.495 28.4169 115.524 28.4331L115.528 28.4372ZM115.365 33.6762C115.426 34.1871 115.459 34.7021 115.556 35.2049C115.833 36.6403 116.683 37.5567 117.988 37.7392C119.277 37.9217 120.465 37.6459 121.119 36.0686C121.738 34.5763 121.746 33.0193 121.237 31.4987C120.88 30.4241 120.139 29.6821 118.94 29.5239C117.805 29.3739 116.874 29.6902 116.211 30.6715C115.597 31.5838 115.382 32.5935 115.365 33.6762Z" fill="white"/>
<path d="M103.036 13.6773C101.52 13.6773 100.003 13.6773 98.4902 13.6773C98.1079 13.6773 98.0469 13.734 98.1445 14.103C98.2787 14.618 98.3763 15.1654 98.6284 15.6196C99.1612 16.5765 100.08 16.9861 101.146 17.0064C101.739 17.0145 102.353 16.9577 102.927 16.8077C103.264 16.7185 103.529 16.3778 103.842 16.171C103.984 16.0778 104.151 15.9642 104.309 15.9642C105.338 15.944 106.367 15.9521 107.396 15.9561C107.709 15.9561 107.758 16.0413 107.619 16.3211C106.672 18.2512 105.114 19.3744 103 19.7515C101.39 20.0354 99.824 19.8894 98.3113 19.2203C96.2618 18.3161 95.0825 16.7752 94.7368 14.5775C94.4888 12.992 94.5376 11.4227 95.05 9.90213C95.8633 7.4935 97.5671 6.0905 100.092 5.70528C101.341 5.5147 102.585 5.60391 103.793 5.99723C105.972 6.7109 107.213 8.27205 107.786 10.4212C108.05 11.4106 108.042 12.4202 108.026 13.4299C108.026 13.511 107.896 13.6164 107.806 13.6651C107.733 13.7056 107.619 13.6813 107.526 13.6813C106.029 13.6813 104.537 13.6813 103.041 13.6813L103.036 13.6773ZM101.316 11.3984V11.4065C102.268 11.4065 103.224 11.4065 104.175 11.4065C104.354 11.4065 104.48 11.37 104.443 11.1632C104.354 10.6523 104.204 10.1657 103.89 9.73588C103.179 8.75458 102.187 8.39775 101.02 8.44641C100.373 8.47479 99.7833 8.66943 99.2831 9.11142C98.6935 9.6345 98.4292 10.3238 98.2096 11.0416C98.1242 11.3132 98.2218 11.3984 98.4943 11.3984C99.4377 11.3903 100.377 11.3984 101.32 11.3984H101.316Z" fill="white"/>
<path d="M167.046 5.49037C168.083 5.5147 169.092 5.65662 170.06 6.03778C171.532 6.62169 172.491 7.71652 173.175 9.0952C173.736 10.2265 174.008 11.4389 174 12.6919C173.992 14.395 173.545 15.9724 172.532 17.3754C171.747 18.4621 170.714 19.1879 169.425 19.5447C167.917 19.9624 166.392 19.9624 164.879 19.5934C163.147 19.1717 161.87 18.1458 161.093 16.5644C159.625 13.5759 159.776 10.6604 161.687 7.899C162.716 6.41084 164.241 5.74583 166.01 5.57147C166.355 5.53903 166.705 5.5147 167.051 5.48631L167.046 5.49037ZM163.72 12.6676C163.777 13.1785 163.793 13.6975 163.903 14.1963C164.228 15.7169 165.078 17.0388 167.181 16.9699C168.608 16.9212 169.828 15.9237 170.121 14.5004C170.324 13.5232 170.348 12.5419 170.247 11.5525C170.17 10.7942 169.897 10.1211 169.438 9.52908C169.055 9.03843 168.592 8.62483 167.945 8.52751C167.486 8.45858 167.014 8.40992 166.554 8.44641C165.644 8.51534 164.94 8.94922 164.472 9.75615C163.948 10.6604 163.74 11.6295 163.72 12.6635V12.6676Z" fill="white"/>
<path d="M147.662 36.7214C147.434 37.3743 147.088 37.8852 146.686 38.3637C145.588 39.6491 144.185 40.3222 142.509 40.5128C140.281 40.7682 138.288 40.2614 136.556 38.8219C135.665 38.0798 135.182 37.0945 134.917 35.9996C134.413 33.9154 134.458 31.8514 135.397 29.8929C136.349 27.9141 137.991 26.8112 140.175 26.5111C141.623 26.3124 143.034 26.4584 144.368 27.0545C146.137 27.8452 147.141 29.2725 147.666 31.077C147.962 32.0947 147.93 33.1369 147.918 34.179C147.918 34.2601 147.767 34.3533 147.674 34.4182C147.629 34.4466 147.552 34.4223 147.487 34.4223C144.518 34.4223 141.55 34.4223 138.581 34.4223C138.044 34.4223 138.089 34.3696 138.122 34.8886C138.207 36.2389 139.041 37.3499 140.297 37.65C141.232 37.873 142.192 37.8892 143.091 37.4594C143.331 37.3459 143.546 37.1553 143.733 36.9607C143.9 36.7863 144.059 36.689 144.307 36.693C145.315 36.7052 146.32 36.693 147.328 36.6971C147.422 36.6971 147.511 36.7092 147.662 36.7214ZM141.265 32.2002C142.188 32.2002 143.107 32.2002 144.03 32.2002C144.217 32.2002 144.408 32.1839 144.36 31.9447C144.282 31.5757 144.225 31.1824 144.042 30.8661C143.506 29.9213 142.696 29.3536 141.574 29.2685C140.509 29.1833 139.553 29.382 138.927 30.3349C138.642 30.7688 138.435 31.2594 138.227 31.742C138.065 32.1191 138.142 32.2042 138.561 32.2042C139.459 32.2042 140.362 32.2042 141.261 32.2042L141.265 32.2002Z" fill="white"/>
<path d="M144.616 12.2337C144.616 13.0244 144.616 13.8151 144.616 14.6058C144.616 17.0753 143.428 18.6973 141.037 19.3907C139.256 19.9097 137.443 20.0232 135.609 19.638C133.99 19.2933 132.888 18.1498 132.652 16.5238C132.445 15.1005 132.746 13.8192 133.819 12.7933C134.547 12.0958 135.47 11.7755 136.438 11.5971C137.434 11.4146 138.443 11.3011 139.447 11.1429C139.736 11.0983 140.029 11.0294 140.305 10.924C140.781 10.7456 141.123 10.4536 141.127 9.88591C141.131 9.28578 140.911 8.83974 140.358 8.62483C139.468 8.2761 138.545 8.21123 137.625 8.50318C137.024 8.69376 136.678 9.14791 136.528 9.7521C136.41 10.2306 136.41 10.2265 135.914 10.2225C135.076 10.2144 134.238 10.2062 133.4 10.2103C133.112 10.2103 133.01 10.1576 133.071 9.8332C133.246 8.91273 133.494 8.02875 134.112 7.29076C134.84 6.42706 135.804 5.9648 136.889 5.75394C138.882 5.37278 140.826 5.53092 142.692 6.3784C144.006 6.97447 144.53 8.07336 144.604 9.41959C144.652 10.3563 144.612 11.297 144.612 12.2337H144.616ZM136.088 15.4614C136.088 16.4752 136.499 17.0753 137.26 17.2334C137.662 17.3186 138.101 17.3186 138.516 17.2659C139.651 17.128 140.822 16.4549 141.037 14.983C141.131 14.3504 141.127 13.7057 141.151 13.065C141.159 12.8014 141.021 12.8257 140.814 12.8987C140.33 13.0731 139.838 13.2312 139.342 13.365C138.65 13.5516 137.93 13.657 137.26 13.8962C136.475 14.1801 136.113 14.8167 136.088 15.4614Z" fill="white"/>
<path d="M129.802 10.7699C129.229 10.7699 128.659 10.7577 128.086 10.7739C127.797 10.782 127.643 10.6888 127.565 10.3968C127.305 9.43581 126.732 8.75053 125.703 8.59644C124.723 8.45047 123.767 8.49912 123.064 9.35877C122.527 10.0197 122.238 10.778 122.165 11.6133C122.08 12.5581 122.072 13.5029 122.218 14.4477C122.425 15.7777 123.202 16.7103 124.422 16.909C124.951 16.9942 125.528 16.9618 126.053 16.8442C127.012 16.6293 127.354 15.8304 127.537 14.9748C127.61 14.6302 127.736 14.5369 128.078 14.545C129.074 14.5693 130.07 14.5653 131.067 14.5572C131.339 14.5572 131.416 14.6261 131.351 14.9059C130.945 16.7266 129.997 18.158 128.342 19.0825C127.602 19.4961 126.789 19.6988 125.955 19.8002C124.568 19.9665 123.21 19.8245 121.901 19.3258C120.384 18.754 119.404 17.6308 118.855 16.1629C117.993 13.8597 118.026 11.5363 118.965 9.26551C119.738 7.40429 121.177 6.26486 123.149 5.82287C124.886 5.4336 126.598 5.56336 128.269 6.17565C129.948 6.792 130.884 8.04092 131.254 9.74804C131.303 9.97512 131.343 10.2022 131.384 10.4293C131.42 10.6401 131.335 10.7415 131.107 10.7374C130.672 10.7293 130.237 10.7374 129.806 10.7374V10.7739L129.802 10.7699Z" fill="white"/>
<path d="M102.882 31.1662C102.882 34.0735 102.882 36.985 102.886 39.8924C102.886 40.1681 102.805 40.2614 102.524 40.2573C101.654 40.2411 100.784 40.2411 99.9174 40.2573C99.6328 40.2614 99.5596 40.164 99.5596 39.8924C99.5677 34.9616 99.5636 30.0267 99.5636 25.0959C99.5636 23.332 100.3 22.4683 102.048 22.1561C102.874 22.0101 102.874 22.0101 102.878 22.8211C102.878 25.6028 102.878 28.3845 102.878 31.1662H102.882Z" fill="white"/>
<path d="M109.807 15.4979C109.807 14.3382 109.766 13.1785 109.815 12.0229C109.892 10.2144 110.498 8.60455 111.869 7.34753C112.84 6.45544 114.028 5.98507 115.313 5.78232C115.976 5.6769 116.659 5.68095 117.334 5.63635C117.57 5.62013 117.627 5.72556 117.623 5.96074C117.606 6.84471 117.623 7.72869 117.635 8.61266C117.635 8.69782 117.643 8.78297 117.643 8.86407C117.643 9.09925 117.554 9.16008 117.289 9.16008C116.626 9.16008 115.947 9.15197 115.309 9.28984C114.276 9.5088 113.528 10.4698 113.394 11.6011C113.349 11.9742 113.324 12.3554 113.324 12.7325C113.316 14.8613 113.324 16.9901 113.324 19.119C113.324 19.565 113.324 19.565 112.861 19.565C111.958 19.565 111.059 19.5569 110.157 19.5691C109.896 19.5691 109.803 19.492 109.807 19.2285C109.819 17.9836 109.811 16.7428 109.811 15.4979H109.807Z" fill="white"/>
<path d="M126.349 36.324C126.349 35.1319 126.284 33.9397 126.365 32.7516C126.507 30.6512 127.292 28.8508 129.126 27.6343C130.147 26.9612 131.294 26.6449 132.497 26.5192C132.957 26.4706 133.425 26.4706 133.888 26.4462C134.108 26.4341 134.185 26.5354 134.185 26.7503C134.177 27.7397 134.177 28.7332 134.185 29.7226C134.185 29.9821 134.059 30.0064 133.847 30.0064C133.29 30.0024 132.717 29.9375 132.176 30.0389C130.757 30.3025 130.102 31.0567 129.948 32.5692C129.805 33.9803 129.874 35.4076 129.858 36.8309C129.85 37.8649 129.85 38.8948 129.858 39.9289C129.858 40.2168 129.765 40.3181 129.472 40.3141C128.541 40.3019 127.605 40.3019 126.674 40.3141C126.398 40.3181 126.333 40.2086 126.333 39.9613C126.341 38.7489 126.333 37.5364 126.333 36.324C126.333 36.324 126.337 36.324 126.341 36.324H126.349Z" fill="white"/>
<path d="M109.242 33.5667C109.242 35.6752 109.242 37.7797 109.242 39.8883C109.242 40.2816 109.221 40.306 108.831 40.306C107.94 40.306 107.05 40.306 106.159 40.306C105.724 40.306 105.724 40.306 105.724 39.864C105.724 36.0483 105.724 32.2367 105.724 28.421C105.724 27.9993 105.7 27.5816 105.675 27.1599C105.663 26.9409 105.728 26.8233 105.972 26.8233C106.956 26.8274 107.944 26.8314 108.928 26.8233C109.229 26.8233 109.242 26.9896 109.242 27.2126C109.242 29.3293 109.242 31.45 109.242 33.5667Z" fill="white"/>
<path d="M107.444 25.5298C106.948 25.5298 106.448 25.5298 105.952 25.5298C105.736 25.5298 105.679 25.4406 105.687 25.2135C105.708 24.289 105.712 23.3645 105.687 22.44C105.679 22.1804 105.728 22.0588 105.992 22.0588C106.838 22.0588 107.684 22.0507 108.53 22.0669C109.368 22.0791 109.237 22.002 109.241 22.7765C109.25 23.5875 109.241 24.3985 109.25 25.2054C109.25 25.4406 109.172 25.5258 108.936 25.5217C108.44 25.5136 107.94 25.5217 107.444 25.5217V25.5339V25.5298Z" fill="white"/>
</g>
<defs>
<clipPath id="clip0_1815_1073">
<rect width="174" height="44" fill="white"/>
</clipPath>
</defs>
</svg>
