<svg width="232" height="32" viewBox="0 0 232 32" fill="none" xmlns="http://www.w3.org/2000/svg">
<g clip-path="url(#clip0_1815_956)">
<path d="M21.2082 27.0367C21.1677 27.1099 21.1246 27.1752 21.0967 27.2457C20.8914 27.7734 20.5695 28.2253 20.2401 28.6772C19.3428 29.9128 18.1466 30.7226 16.7349 31.1484C14.3778 31.8616 12.1779 31.5063 10.2086 29.9207C9.27595 29.1683 8.64487 28.1966 8.14304 27.1125C7.96563 26.7285 8.05434 26.6867 7.5297 26.7572C6.06225 26.9584 4.67336 26.6945 3.39852 25.9187C1.91079 25.0122 0.848848 23.7087 0.33942 22.016C-0.327145 19.793 -0.0255434 17.6823 1.28984 15.7571C1.75365 15.0779 2.34165 14.5293 3.01075 14.0696C3.28194 13.8841 3.2718 13.8867 3.17042 13.5732C2.27068 10.8382 2.57482 8.27037 4.26277 5.93763C5.61364 4.07249 7.45367 3.01453 9.70681 2.82122C11.6583 2.65404 13.4553 3.17388 15.0545 4.3729C15.531 4.73077 15.9568 5.13828 16.3319 5.60588C16.3851 5.6738 16.446 5.73388 16.5169 5.81224C16.5955 5.74433 16.6614 5.68947 16.7247 5.632C18.1542 4.25273 19.8548 3.57616 21.8114 3.64931C23.1876 3.70155 24.4346 4.19265 25.5599 5.01812C26.3228 5.57714 26.9462 6.26155 27.4227 7.08963C27.5875 7.37437 27.5925 7.37959 27.8992 7.25159C28.9105 6.83624 29.9673 6.62204 31.0496 6.61943C32.2433 6.61943 33.3939 6.87282 34.4914 7.37437C35.4418 7.808 36.2934 8.40098 37.041 9.1298C37.814 9.88212 38.4122 10.7755 38.838 11.7864C39.1548 12.5414 39.4032 13.3172 39.5197 14.1349C39.9329 17.0397 39.2055 19.5814 37.2514 21.7469C36.301 22.7997 35.1706 23.5494 33.8653 24.03C32.7933 24.4219 31.6832 24.5708 30.5477 24.5133C30.2512 24.4976 29.9572 24.4376 29.6632 24.3905C29.3819 24.3435 29.3793 24.3435 29.2222 24.5917C28.7153 25.3962 28.107 26.1016 27.3112 26.6162C26.3659 27.2274 25.3419 27.5775 24.2141 27.6114C23.1978 27.6428 22.2245 27.4808 21.2969 27.042C21.2817 27.0341 21.2589 27.0367 21.2057 27.0315L21.2082 27.0367Z" fill="white"/>
<path d="M119.049 7.1889C119.142 6.68212 119.218 6.21453 119.315 5.75478C119.533 4.71771 119.872 3.72506 120.394 2.80294C121.208 1.3662 122.422 0.517224 123.993 0.185469C125.334 -0.0966535 126.665 -0.049633 127.99 0.297796C128.046 0.313469 128.102 0.329143 128.155 0.35004C128.386 0.441469 128.436 0.532898 128.393 0.781061C128.378 0.867265 128.35 0.953469 128.32 1.03445C128.092 1.67184 127.861 2.31184 127.63 2.94922C127.519 3.25486 127.443 3.29927 127.134 3.22612C126.647 3.11118 126.163 2.98057 125.659 2.99363C125.253 3.00408 124.848 3.05371 124.477 3.22873C123.778 3.55788 123.281 4.11167 123.045 4.85094C122.815 5.56931 122.688 6.32163 122.516 7.0609C122.508 7.08963 122.516 7.11837 122.518 7.17061C122.579 7.18106 122.64 7.19935 122.703 7.19935C123.674 7.20457 124.645 7.20718 125.615 7.2098C126.135 7.2098 126.211 7.29078 126.127 7.82367C126.023 8.48457 125.899 9.14547 125.778 9.80376C125.729 10.0624 125.626 10.1486 125.362 10.1695C125.21 10.1825 125.055 10.1799 124.901 10.1799C124.054 10.1799 123.21 10.1799 122.364 10.1799C122.25 10.1799 122.136 10.1799 121.999 10.1799C121.956 10.3967 121.913 10.5848 121.88 10.7781C121.573 12.5544 121.266 14.3334 120.96 16.1097C120.628 18.0428 120.306 19.9784 119.966 21.9089C119.751 23.1314 119.548 24.3592 119.269 25.566C118.965 26.8957 118.527 28.1809 117.748 29.3146C116.877 30.5868 115.693 31.326 114.19 31.535C113.453 31.6369 112.718 31.6578 111.977 31.5977C111.458 31.5559 110.954 31.4279 110.469 31.232C110.17 31.1092 110.094 30.9786 110.193 30.6573C110.343 30.1688 110.52 29.6882 110.687 29.2049C110.748 29.0273 110.812 28.8522 110.88 28.6772C111.019 28.3141 111.113 28.2723 111.471 28.3977C112.13 28.6302 112.801 28.6746 113.488 28.5675C114.231 28.4526 114.748 28.0216 115.108 27.3659C115.528 26.6031 115.792 25.775 115.964 24.9234C116.218 23.6696 116.438 22.4052 116.661 21.1461C117.041 19.0015 117.414 16.8568 117.786 14.7096C118.035 13.2833 118.281 11.8544 118.529 10.4281C118.539 10.3706 118.544 10.3131 118.557 10.2139C118.445 10.2008 118.349 10.1825 118.25 10.1825C117.703 10.1799 117.155 10.1825 116.608 10.1825C116.502 10.1825 116.395 10.1825 116.291 10.1695C116.015 10.1381 115.946 10.0754 115.969 9.79592C115.99 9.52163 116.04 9.24996 116.086 8.97829C116.159 8.54204 116.235 8.10318 116.311 7.66694C116.38 7.28816 116.474 7.20457 116.854 7.20457C117.47 7.20457 118.083 7.2098 118.699 7.21241C118.813 7.21241 118.924 7.19935 119.054 7.19151L119.049 7.1889Z" fill="white"/>
<path d="M71.4086 13.4557C71.4264 12.6851 71.4264 11.9667 71.1324 11.2901C70.9398 10.8487 70.6027 10.5456 70.1921 10.3262C69.7232 10.0754 69.2188 9.95265 68.6993 9.91608C66.91 9.78286 65.2017 10.1224 63.5797 10.9061C63.1108 11.1308 63.0474 11.1177 62.8548 10.624C62.6267 10.0389 62.4113 9.44588 62.2009 8.8529C62.1046 8.58645 62.1376 8.43494 62.3733 8.29388C62.7027 8.09535 63.0474 7.91249 63.4048 7.77143C64.6619 7.28033 65.9646 7.00865 67.3079 6.91984C68.2127 6.85976 69.1124 6.86237 70.0096 6.98776C70.661 7.07918 71.2895 7.2542 71.8902 7.52588C73.3526 8.18939 74.2244 9.34661 74.5818 10.9296C74.744 11.6532 74.815 12.3873 74.815 13.1318C74.8124 16.35 74.815 19.5683 74.815 22.7866C74.815 23.1993 74.7871 23.2647 74.3866 23.3535C73.3551 23.5833 72.321 23.8028 71.2844 24.0091C70.3112 24.2025 69.3228 24.2834 68.3343 24.2965C66.9657 24.3174 65.6047 24.2233 64.3071 23.714C62.8675 23.1471 61.9171 22.0944 61.4659 20.5819C61.2581 19.887 61.2074 19.1634 61.2834 18.4424C61.3291 18.0036 61.3873 17.5543 61.5242 17.1389C62.0564 15.5272 63.1691 14.4823 64.6898 13.8789C65.7846 13.4452 66.9302 13.2624 68.1037 13.2545C69.0668 13.2467 70.0248 13.2911 70.9778 13.4296C71.107 13.4478 71.2414 13.4452 71.4162 13.4557H71.4086ZM71.4188 18.6697H71.4213C71.4213 17.9801 71.4213 17.2878 71.4213 16.5982C71.4213 16.2664 71.4213 16.2586 71.0918 16.2142C70.7598 16.1698 70.4253 16.1306 70.0907 16.1019C69.2771 16.0313 68.4661 15.9425 67.65 16.0705C67.0975 16.1567 66.5526 16.2717 66.0482 16.5303C65.5996 16.7602 65.2119 17.0684 64.9914 17.5412C64.6112 18.3484 64.5934 19.1843 64.9305 20.0046C65.1713 20.5923 65.6579 20.9371 66.2307 21.1409C67.0012 21.4152 67.7945 21.5145 68.6131 21.4596C69.447 21.4047 70.2783 21.3159 71.0969 21.1487C71.4112 21.086 71.4162 21.0782 71.4162 20.7412C71.4162 20.0516 71.4162 19.3593 71.4162 18.6697H71.4188Z" fill="white"/>
<path d="M88.1314 16.5329C88.1466 16.7367 88.1466 16.9326 88.177 17.1233C88.2429 17.5203 88.3012 17.9226 88.4051 18.3118C88.7903 19.7538 89.7332 20.6289 91.1094 21.0338C91.6746 21.201 92.2549 21.2715 92.8455 21.2767C93.7503 21.2846 94.6551 21.2584 95.5345 21.0338C95.9882 20.9162 96.4343 20.7543 96.8753 20.5871C97.4151 20.386 97.514 20.4278 97.699 20.9789C97.8587 21.4544 98.0285 21.9272 98.1932 22.4C98.2312 22.5123 98.2718 22.622 98.3047 22.737C98.3807 23.0087 98.3351 23.1497 98.0791 23.2647C97.666 23.4527 97.2504 23.6382 96.822 23.7767C95.7981 24.1084 94.7413 24.2442 93.6717 24.273C93.0102 24.2913 92.3462 24.2887 91.6847 24.2416C90.1741 24.1371 88.7548 23.7087 87.5028 22.8049C86.7121 22.2354 86.0937 21.4988 85.6045 20.6472C84.9607 19.5291 84.6439 18.3118 84.54 17.024C84.4843 16.3344 84.4437 15.6473 84.4868 14.9551C84.5704 13.6046 84.7935 12.2906 85.3561 11.055C86.0708 9.48506 87.186 8.31478 88.7194 7.58074C89.4391 7.23592 90.2096 7.06351 90.9953 6.96163C91.9457 6.83886 92.8936 6.84408 93.8314 7.05567C94.5461 7.21763 95.2481 7.42661 95.8666 7.8498C97.4354 8.92343 98.3833 10.4176 98.733 12.3193C98.9054 13.2545 98.989 14.1949 98.9611 15.1458C98.951 15.4802 98.9231 15.8171 98.8826 16.1489C98.8471 16.4519 98.7432 16.5407 98.4441 16.5433C97.1946 16.5486 95.9451 16.5512 94.6982 16.5433C92.5844 16.5329 90.4732 16.5146 88.3595 16.5016C88.2936 16.5016 88.2302 16.5172 88.1314 16.5329ZM95.5168 13.79C95.5244 13.7273 95.5345 13.6882 95.532 13.6516C95.4813 13.0691 95.3825 12.4996 95.1721 11.9536C94.8097 11.0106 94.1659 10.3576 93.2409 10.0075C92.777 9.83249 92.2904 9.77502 91.7962 9.79853C90.5695 9.85339 89.5988 10.3811 88.9449 11.4651C88.6281 11.9902 88.438 12.5701 88.3113 13.1709C88.2708 13.3669 88.2429 13.568 88.2023 13.7927H95.5168V13.79Z" fill="white"/>
<path d="M171.69 16.5251C171.733 16.8751 171.763 17.1886 171.809 17.4968C171.88 17.9958 172.009 18.479 172.212 18.944C172.638 19.921 173.37 20.5505 174.331 20.9162C174.957 21.154 175.608 21.2689 176.277 21.2767C177.134 21.2872 177.985 21.2689 178.832 21.1043C179.392 20.9946 179.932 20.8274 180.456 20.6002C180.994 20.3677 181.085 20.4173 181.278 20.9737C181.45 21.4753 181.625 21.9768 181.8 22.481C181.827 22.5646 181.86 22.6482 181.886 22.7318C181.972 23.0296 181.926 23.1419 181.658 23.2803C181.131 23.552 180.583 23.761 180.01 23.8994C178.533 24.2599 177.032 24.3618 175.519 24.2678C174.632 24.2129 173.763 24.0692 172.924 23.7636C170.618 22.9224 169.132 21.2689 168.453 18.8735C168.017 17.3401 167.956 15.7675 168.141 14.1793C168.276 13.0142 168.532 11.8857 169.051 10.833C169.69 9.53469 170.635 8.53682 171.859 7.82106C172.698 7.33257 173.618 7.09225 174.569 6.96686C175.598 6.83363 176.622 6.84931 177.63 7.10531C180.003 7.70873 181.47 9.28914 182.152 11.6532C182.565 13.0873 182.641 14.5659 182.481 16.0549C182.441 16.4415 182.345 16.5433 181.974 16.5433C180.763 16.5486 179.554 16.5512 178.343 16.5433C176.229 16.5329 174.118 16.5146 172.004 16.4989C171.92 16.4989 171.837 16.512 171.695 16.5224L171.69 16.5251ZM179.118 13.7874C179.055 12.8914 178.898 12.0503 178.426 11.3136C178.031 10.6945 177.494 10.2348 176.804 9.99967C175.958 9.71233 175.098 9.71233 174.257 10.0101C173.2 10.3837 172.541 11.1752 172.164 12.2253C172.019 12.6302 171.93 13.0586 171.821 13.4766C171.799 13.568 171.804 13.6673 171.794 13.7848H179.118V13.7874Z" fill="white"/>
<path d="M126.354 15.6003C126.369 14.4431 126.508 13.3094 126.822 12.2044C127.228 10.7807 127.93 9.54253 129.048 8.576C129.983 7.76882 131.06 7.28294 132.254 7.05045C133.584 6.79184 134.912 6.82057 136.223 7.17584C137.561 7.53633 138.686 8.26775 139.589 9.34139C140.478 10.3993 140.975 11.6454 141.243 13.0038C141.52 14.3909 141.563 15.7858 141.416 17.186C141.231 18.9414 140.658 20.5427 139.538 21.9089C139.011 22.5515 138.367 23.0452 137.647 23.4371C136.697 23.9543 135.678 24.2025 134.611 24.2704C133.648 24.3305 132.69 24.2834 131.752 24.03C130.001 23.5572 128.642 22.5332 127.684 20.9476C127.058 19.9158 126.678 18.7977 126.531 17.5987C126.45 16.9352 126.414 16.2638 126.356 15.5977L126.354 15.6003ZM137.883 15.697C137.903 14.3308 137.751 13.0638 137.211 11.8753C136.859 11.0968 136.314 10.4934 135.531 10.1669C134.806 9.86384 134.053 9.78286 133.27 9.90302C132.315 10.0493 131.554 10.496 130.997 11.311C130.513 12.0163 130.315 12.8261 130.168 13.6542C129.98 14.7096 129.963 15.7753 130.064 16.8385C130.155 17.7868 130.358 18.7063 130.804 19.5579C131.182 20.2789 131.711 20.8327 132.469 21.1174C133.245 21.4073 134.043 21.4727 134.852 21.2924C135.845 21.073 136.605 20.514 137.077 19.5762C137.229 19.2705 137.371 18.9545 137.48 18.6279C137.802 17.6562 137.908 16.6478 137.883 15.6944V15.697Z" fill="white"/>
<path d="M53.4544 6.85192C55.264 6.84408 56.9799 7.24114 58.574 8.14237C59.0835 8.42971 59.1088 8.50808 58.9061 9.05404C58.7008 9.60784 58.4955 10.159 58.2876 10.7128C58.1559 11.0681 58.0215 11.1282 57.6971 10.9636C56.5414 10.3758 55.3274 9.99184 54.05 9.82465C53.5355 9.75673 53.021 9.70188 52.5015 9.79592C51.9768 9.88996 51.5054 10.0833 51.1354 10.4934C50.5499 11.1464 50.5778 12.0268 51.214 12.6276C51.5232 12.9202 51.8831 13.1318 52.2734 13.2754C53.2035 13.6202 54.1387 13.9494 55.0739 14.2811C55.9306 14.5842 56.7746 14.9133 57.5248 15.4436C57.8619 15.6813 58.1863 15.9556 58.4727 16.256C59.01 16.8255 59.3116 17.5256 59.4104 18.3118C59.4991 19.0119 59.4915 19.712 59.3217 20.399C58.9542 21.8802 58.1254 22.9851 56.7746 23.6513C55.9331 24.0666 55.041 24.2573 54.1083 24.3226C53.3074 24.3801 52.5141 24.3278 51.7234 24.2469C50.3903 24.1084 49.1332 23.6905 47.9622 23.0139C47.7037 22.865 47.4452 22.7082 47.1968 22.5411C46.8597 22.3138 46.8268 22.2067 46.9586 21.8253C47.1689 21.2114 47.3818 20.5976 47.5998 19.9863C47.7519 19.5631 47.909 19.5187 48.2968 19.7486C48.8037 20.0516 49.3004 20.3729 49.8251 20.6393C50.7654 21.1174 51.769 21.3603 52.8132 21.4596C53.3429 21.5092 53.8675 21.5171 54.3871 21.3891C54.7445 21.3002 55.079 21.1487 55.3755 20.9215C55.9788 20.4591 56.1663 19.8269 56.0522 19.0877C56.0168 18.8473 55.8774 18.6514 55.7152 18.4764C55.4592 18.1995 55.155 17.9853 54.8129 17.8521C54.1032 17.5778 53.386 17.3296 52.6687 17.0762C51.9337 16.8176 51.1835 16.5982 50.4638 16.2978C49.9797 16.094 49.5184 15.8093 49.0825 15.5115C48.3145 14.9838 47.8076 14.2341 47.5238 13.3329C47.3717 12.8496 47.3514 12.3429 47.3616 11.8387C47.3869 10.6945 47.7189 9.66792 48.4539 8.79282C49.2295 7.86808 50.2179 7.32473 51.366 7.05045C52.0554 6.88588 52.7524 6.84669 53.4544 6.85192Z" fill="white"/>
<path d="M107.474 6.86237C109.327 6.83625 111.075 7.24376 112.7 8.17633C112.751 8.20506 112.799 8.23641 112.847 8.27037C113.103 8.45061 113.144 8.57078 113.035 8.87118C112.806 9.50074 112.576 10.1277 112.343 10.7546C112.229 11.0576 112.079 11.1073 111.777 10.9793C111.192 10.7311 110.612 10.4725 110.013 10.2557C109.296 9.99706 108.546 9.87429 107.788 9.79069C107.276 9.73323 106.772 9.73061 106.273 9.86645C105.702 10.0206 105.223 10.3079 104.95 10.8722C104.661 11.473 104.729 12.1783 105.292 12.6354C105.568 12.8601 105.87 13.0743 106.197 13.2049C107.053 13.5497 107.925 13.858 108.799 14.161C109.664 14.464 110.525 14.7749 111.314 15.2555C111.853 15.5847 112.343 15.9739 112.735 16.4911C113.194 17.0971 113.43 17.7842 113.501 18.5339C113.554 19.0851 113.549 19.6389 113.435 20.1848C113.108 21.7443 112.282 22.9198 110.875 23.633C110.036 24.0588 109.147 24.2808 108.211 24.3148C108.001 24.3226 107.791 24.367 107.58 24.3644C105.677 24.3383 103.829 24.0562 102.141 23.0713C101.825 22.8859 101.51 22.6952 101.204 22.494C100.955 22.3321 100.915 22.2093 100.996 21.922C101.029 21.7992 101.079 21.679 101.12 21.5589C101.29 21.0756 101.46 20.5923 101.629 20.1117C101.66 20.0281 101.688 19.9445 101.726 19.8635C101.842 19.618 102.005 19.5605 102.245 19.678C102.331 19.7198 102.41 19.7799 102.491 19.8322C103.292 20.3651 104.133 20.8144 105.051 21.1017C105.781 21.329 106.531 21.4439 107.289 21.4909C107.869 21.5275 108.442 21.4491 108.979 21.201C109.694 20.8692 110.125 20.3259 110.163 19.4926C110.183 18.9989 109.981 18.6149 109.618 18.3092C109.243 17.9905 108.805 17.7816 108.351 17.6196C107.623 17.3636 106.891 17.1259 106.156 16.8986C105.261 16.6243 104.395 16.2821 103.584 15.7989C102.788 15.3234 102.177 14.6782 101.776 13.824C101.594 13.4348 101.503 13.0247 101.465 12.5989C101.366 11.4495 101.515 10.3497 102.124 9.35445C102.671 8.45845 103.424 7.808 104.382 7.40833C105.284 7.03478 106.214 6.82841 107.19 6.85714C107.286 6.85976 107.383 6.85714 107.479 6.85714L107.474 6.86237Z" fill="white"/>
<path d="M162.586 24.3069C161.531 24.2834 160.497 24.1633 159.486 23.8498C157.75 23.3117 156.477 22.1962 155.583 20.5949C154.937 19.4351 154.592 18.1838 154.483 16.8568C154.414 16.0183 154.402 15.1824 154.49 14.3438C154.665 12.6563 155.134 11.0785 156.173 9.72278C157.177 8.41143 158.475 7.57029 160.049 7.16278C161.065 6.89894 162.096 6.85192 163.138 6.88065C164.258 6.90939 165.351 7.11314 166.428 7.42922C166.491 7.44751 166.557 7.47102 166.62 7.49453C167.011 7.63559 167.064 7.73486 166.935 8.13192C166.821 8.47673 166.696 8.81894 166.575 9.16376C166.466 9.46939 166.354 9.77502 166.245 10.0807C166.134 10.3915 166.025 10.4594 165.723 10.3628C164.92 10.1094 164.096 9.97355 163.26 9.92653C162.654 9.89257 162.051 9.8978 161.453 10.0258C159.975 10.3445 159.035 11.2901 158.497 12.6981C158.188 13.5131 158.056 14.3673 158.013 15.2424C157.96 16.3004 158.072 17.3296 158.421 18.3275C158.994 19.9576 160.15 20.8588 161.787 21.154C162.748 21.3264 163.703 21.2689 164.651 21.0965C165.016 21.0312 165.368 20.8823 165.726 20.7726C165.809 20.7464 165.888 20.7073 165.972 20.6916C166.187 20.6498 166.296 20.7073 166.377 20.9189C166.479 21.1853 166.572 21.4544 166.664 21.726C166.811 22.1544 166.958 22.5829 167.097 23.0139C167.193 23.3117 167.135 23.4266 166.851 23.5363C165.956 23.8811 165.031 24.0953 164.081 24.1946C163.584 24.2469 163.087 24.273 162.588 24.3096L162.586 24.3069Z" fill="white"/>
<path d="M81.5773 12.1548C81.5773 15.9164 81.5773 19.6754 81.5773 23.4371C81.5773 23.4971 81.5798 23.5546 81.5773 23.6147C81.5595 23.8158 81.4658 23.9151 81.2706 23.9412C81.1946 23.9517 81.116 23.9464 81.04 23.9464C80.2619 23.9464 79.4838 23.9464 78.7057 23.9491C78.6373 23.9491 78.5714 23.9517 78.5055 23.9438C78.2977 23.9151 78.1963 23.8211 78.1634 23.6069C78.1431 23.471 78.1456 23.3326 78.1456 23.1941C78.1456 15.9974 78.1456 8.80326 78.1456 1.60653C78.1456 1.36098 78.1456 1.11282 78.1456 0.867265C78.1507 0.433632 78.2521 0.329142 78.6804 0.331755C79.1695 0.331755 79.6612 0.339591 80.1504 0.342204C80.4672 0.342204 80.784 0.334367 81.1008 0.331755C81.448 0.329142 81.5849 0.43102 81.5849 0.817632C81.5773 4.59755 81.5798 8.38008 81.5798 12.16L81.5773 12.1548Z" fill="white"/>
<path d="M147.637 8.72229C147.949 8.36963 148.301 8.06922 148.704 7.83673C149.728 7.24114 150.823 6.97208 151.997 7.09486C152.473 7.14449 152.947 7.22286 153.424 7.28816C153.472 7.296 153.517 7.30645 153.565 7.31951C153.971 7.42922 154.044 7.54939 153.905 7.9569C153.667 8.65437 153.418 9.34922 153.165 10.0415C153.043 10.3758 152.934 10.4281 152.587 10.3549C151.91 10.2113 151.236 10.2008 150.562 10.3602C149.3 10.658 148.486 11.4651 148.071 12.7033C147.802 13.5027 147.706 14.3386 147.703 15.1798C147.696 17.8547 147.703 20.5296 147.701 23.2046C147.701 23.2829 147.701 23.3613 147.701 23.4423C147.693 23.8184 147.577 23.9412 147.219 23.9491C147.105 23.9491 146.989 23.9491 146.874 23.9491C146.203 23.9491 145.529 23.9491 144.857 23.9491C144.761 23.9491 144.664 23.9491 144.571 23.9334C144.396 23.902 144.302 23.7949 144.282 23.6147C144.272 23.5259 144.277 23.4371 144.277 23.3482C144.277 18.1655 144.277 12.9855 144.277 7.80278C144.277 7.296 144.335 7.23592 144.816 7.23592C145.584 7.23592 146.352 7.23592 147.123 7.23592C147.511 7.23592 147.587 7.3169 147.589 7.72702C147.589 8.05094 147.589 8.37486 147.589 8.70139C147.607 8.70922 147.625 8.71706 147.642 8.72751L147.637 8.72229Z" fill="white"/>
</g>
<defs>
<clipPath id="clip0_1815_956">
<rect width="232" height="32" fill="white"/>
</clipPath>
</defs>
</svg>
