<svg width="191" height="60" viewBox="0 0 191 60" fill="none" xmlns="http://www.w3.org/2000/svg">
<g clip-path="url(#clip0_1815_942)">
<path d="M100.465 0H94.7627V5.81075H100.465V0Z" fill="white"/>
<path d="M186.693 29.271L182.384 33.6622L186.693 38.0535L191.002 33.6622L186.693 29.271Z" fill="white"/>
<path d="M37.3638 51.2173L33.0547 55.6085L37.3638 59.9998L41.6728 55.6085L37.3638 51.2173Z" fill="white"/>
<path d="M106.359 19.0363V48.2866H126.486L129.36 45.3606V36.5858L126.486 33.6599L129.36 30.7339V21.9591L126.486 19.0331H106.359V19.0363ZM115.01 36.6651H120.712V42.4758H115.01V36.6651ZM115.01 30.6546V24.8439H120.712V30.6546H115.01Z" fill="white"/>
<path d="M96.9247 10.2172H100.462V9.55777L99.7492 8.81598H95.4751L94.7627 9.55777V15.489L95.4751 16.2276H99.7492L100.462 15.489V14.6267H96.9247V13.2224H100.462V11.6215H96.9247V10.2172Z" fill="white"/>
<path d="M91.8134 8.81598V11.6215H89.6483V8.81598H88.208L87.4863 9.55777V15.489L88.208 16.2276H89.6483V13.2224H91.8134V16.2276H93.2537L93.9754 15.489V9.55777L93.2537 8.81598H91.8134Z" fill="white"/>
<path d="M81.1319 8.81598L80.4102 9.51656V10.2171H82.5721V15.3019L83.2938 16.0279H84.0124L84.7341 15.3019V10.2171H86.8992V9.51656L86.1775 8.81598H81.1319Z" fill="white"/>
<path d="M2.87433 19.0331L0 21.9718V33.7359L2.87122 36.6651H14.353V42.4727H8.65099V39.4674H0V45.3447L2.88366 48.2834H20.1328L23.0009 45.3447V33.5901L20.1328 30.6546H8.65099V24.8439H14.353V27.8491H23.0009V21.9718L20.1265 19.0331H2.87433Z" fill="white"/>
<path d="M80.4102 19.0363V48.2866H100.537L103.411 45.3606V21.9591L100.537 19.0331H80.4102V19.0363ZM89.0611 24.8439H94.7632V42.4758H89.0611V24.8439Z" fill="white"/>
<path d="M135.065 19.0363L132.116 21.9623V45.3574L134.991 48.2834H152.243L155.117 45.3574V21.9559L152.243 19.03H135.065V19.0363ZM140.767 24.8439H146.469V42.4758H140.767V24.8439Z" fill="white"/>
<path d="M172.22 19.0331V27.8206L169.371 30.7244L166.521 27.8206V19.0331H160.754L157.87 21.9559V30.7339L160.754 33.6567L157.87 36.5827V45.3574L160.754 48.2834H166.521V39.5055L169.371 36.5763L172.22 39.5055V48.2834H177.987L180.871 45.3574V36.5827L177.987 33.6567L180.871 30.7339V21.9559L177.987 19.0331H172.22Z" fill="white"/>
<path d="M69.0059 19.0331V27.8079L60.3549 19.0331H54.5876L51.707 21.9559V45.3574L54.5876 48.2834H60.3549V30.7244L69.0059 39.5055V48.2834H74.7732L77.6569 45.3574V21.9559L74.7732 19.0331H69.0059Z" fill="white"/>
<path d="M46.0799 19.0331H28.8276L25.9502 21.9591V45.3606L28.8276 48.2866H34.6012V36.6651H40.3032V48.2866H46.0767L48.9542 45.3606V21.9591L46.0767 19.0331H46.0799ZM37.3604 32.1636L33.0894 27.8111L37.3604 23.4586L41.6315 27.8111L37.3604 32.1636Z" fill="white"/>
</g>
<defs>
<clipPath id="clip0_1815_942">
<rect width="191" height="60" fill="white"/>
</clipPath>
</defs>
</svg>
