<svg width="167" height="50" viewBox="0 0 167 50" fill="none" xmlns="http://www.w3.org/2000/svg">
<g clip-path="url(#clip0_1815_923)">
<path d="M35.1878 5.17449C36.3706 2.09113 38.505 0.340339 41.8916 0.288421C45.3302 0.236503 47.3518 2.13728 48.6329 5.16584C48.7052 5.0072 48.7515 4.91778 48.7891 4.82549C50.2322 1.4162 53.4077 0.0201778 56.5543 0.337455C58.6337 0.548012 60.3718 1.41331 61.6558 3.09488C62.4888 4.18228 62.8098 5.45139 62.937 6.77818C63.0064 7.51946 63.0267 8.2665 63.0267 9.01066C63.0267 15.2639 63.0151 21.52 63.0064 27.7733C63.0064 28.6386 62.6536 28.9905 61.786 28.9905C60.2474 28.9905 58.706 28.9905 57.1674 28.9905C56.3027 28.9905 55.9498 28.6386 55.9527 27.7675C55.9614 22.4517 55.9759 17.1387 55.9759 11.8229C55.9759 10.9922 55.9672 10.1529 55.837 9.33659C55.5045 7.22237 53.4193 6.23016 51.4238 7.1993C50.2322 7.77905 49.596 8.77703 49.434 10.049C49.3068 11.0528 49.2345 12.0709 49.2316 13.0833C49.2113 17.9867 49.2229 22.8901 49.2229 27.7964C49.2229 28.6415 48.8672 28.9934 48.0169 28.9934C46.4552 28.9934 44.8935 28.9934 43.3347 28.9934C42.5452 28.9934 42.175 28.6357 42.1779 27.8483C42.1808 22.7401 42.1894 17.6291 42.1923 12.5209C42.1923 11.3758 42.1923 10.2307 41.8887 9.11161C41.504 7.69829 40.6277 6.91663 39.3552 6.83587C37.7096 6.73203 36.628 7.34351 36.0351 8.72799C35.5695 9.81251 35.4654 10.9662 35.451 12.1229C35.422 14.315 35.4365 16.5071 35.4336 18.702C35.4336 21.7479 35.4336 24.7938 35.4336 27.8396C35.4336 28.6213 35.0605 28.9962 34.2826 28.9962C32.689 28.9962 31.0955 28.9962 29.502 28.9962C28.7559 28.9962 28.3799 28.6242 28.3799 27.88C28.3799 19.2501 28.3799 10.6172 28.3799 1.9873C28.3799 1.21141 28.7327 0.85952 29.5136 0.85952C31.0088 0.856636 32.5068 0.856636 34.002 0.85952C34.7337 0.85952 35.0981 1.2316 35.101 1.95845C35.101 3.01412 35.101 4.07267 35.101 5.12834C35.1299 5.14565 35.1617 5.16295 35.1907 5.18314L35.1878 5.17449Z" fill="white"/>
<path d="M16.2363 25.6479C15.6001 26.2045 15.0043 26.7526 14.3796 27.2689C12.7948 28.5755 10.9497 29.2071 8.91076 29.3139C7.61801 29.3802 6.33105 29.3687 5.07879 28.9764C2.82588 28.2697 1.26996 26.816 0.535377 24.5807C-0.222341 22.2674 -0.190528 19.9369 0.734929 17.6698C1.75004 15.1864 3.67325 13.6404 6.15174 12.7289C7.77708 12.1319 9.47471 11.8463 11.1839 11.6386C12.4101 11.4886 13.6393 11.3704 14.8655 11.2348C14.9725 11.2233 15.0737 11.1973 15.2617 11.1627C15.1923 10.0984 15.2125 9.03119 15.039 7.99572C14.7845 6.48144 13.6508 5.59018 12.0371 5.47769C11.236 5.42289 10.458 5.52672 9.71764 5.84977C8.6042 6.33722 7.89276 7.16503 7.58331 8.34184C7.52547 8.55816 7.46474 8.78314 7.36062 8.97928C7.1495 9.3802 6.84005 9.50999 6.39178 9.45808C4.88502 9.29078 3.37826 9.12349 1.86861 8.97062C1.108 8.89275 0.766741 8.45433 0.922912 7.71305C1.617 4.45375 3.54311 2.20973 6.65496 1.04735C10.2151 -0.282333 13.8359 -0.371748 17.4279 0.946395C19.6085 1.74536 21.2164 3.17887 21.9395 5.45461C22.3183 6.65162 22.4051 7.89188 22.408 9.13503C22.4195 12.452 22.4427 15.7661 22.3993 19.0831C22.3791 20.7445 22.8244 22.2097 23.854 23.5048C24.0564 23.7586 24.2502 24.0182 24.4208 24.2951C24.7534 24.8287 24.684 25.2239 24.2097 25.6363C23.0066 26.6747 21.8006 27.7159 20.5975 28.7543C19.9439 29.3167 19.4783 29.311 18.8276 28.7543C18.041 28.0822 17.3556 27.3208 16.7858 26.4584C16.6065 26.1872 16.4214 25.9248 16.2363 25.6536V25.6479ZM15.2097 15.3046C13.5033 15.3104 11.8722 15.42 10.325 16.0776C9.63956 16.3689 9.02934 16.7728 8.54926 17.3467C7.41846 18.6966 7.19288 21.1541 8.04893 22.6943C8.48563 23.4788 9.14213 23.9634 10.0242 24.1307C10.9236 24.3009 11.7681 24.1249 12.5461 23.6519C13.5583 23.0347 14.1917 22.1088 14.6284 21.0387C15.3774 19.1985 15.1634 17.266 15.2097 15.3046Z" fill="white"/>
<path d="M83.7277 25.6677C82.9468 26.3225 82.218 26.9859 81.4371 27.5829C79.9448 28.7251 78.2125 29.2212 76.3529 29.3164C75.1267 29.377 73.9062 29.3654 72.7118 29.0193C70.3519 28.3328 68.7439 26.8416 67.992 24.5169C67.2748 22.3017 67.2979 20.0635 68.1308 17.88C69.1141 15.2985 71.0576 13.6891 73.6026 12.7401C75.2366 12.1315 76.9458 11.8489 78.6666 11.6412C79.8928 11.4941 81.1219 11.3729 82.3481 11.2374C82.4436 11.2258 82.539 11.2057 82.6749 11.1826C82.6316 9.97404 82.8022 8.7655 82.4233 7.58581C82.1486 6.73204 81.5933 6.13787 80.7662 5.78886C79.1235 5.09662 76.9574 5.55812 75.8381 6.84453C75.439 7.30314 75.199 7.83674 75.0428 8.41938C74.9734 8.6732 74.8693 8.92991 74.7247 9.152C74.557 9.41159 74.288 9.51831 73.9641 9.48082C72.3937 9.30776 70.8204 9.14046 69.2471 8.97029C68.5993 8.90106 68.2667 8.42803 68.3969 7.78194C69.0649 4.48226 71.0055 2.21805 74.1376 1.04701C77.6977 -0.285552 81.3186 -0.372082 84.9105 0.948944C87.0564 1.73637 88.6499 3.13816 89.3903 5.36487C89.7344 6.40034 89.8646 7.47332 89.8704 8.55494C89.8877 12.0969 89.8964 15.6389 89.8762 19.1808C89.8675 20.7528 90.2897 22.1575 91.2615 23.4006C91.4755 23.6718 91.6837 23.9515 91.8717 24.24C92.2361 24.7966 92.1638 25.2293 91.6663 25.6562C90.4604 26.6945 89.2573 27.7358 88.0542 28.7742C87.7505 29.0366 87.4208 29.2443 86.9957 29.1433C86.825 29.103 86.6457 29.0222 86.5098 28.9126C85.6191 28.1944 84.8527 27.3608 84.228 26.4003C84.0631 26.1494 83.8867 25.9042 83.7248 25.6677H83.7277ZM82.6778 15.3043C80.853 15.3158 79.0975 15.4283 77.4721 16.2331C76.2228 16.8532 75.4275 17.8396 75.1412 19.2097C74.9763 19.9885 74.9734 20.7759 75.118 21.5575C75.5142 23.7006 77.5184 24.7707 79.5255 23.9025C80.9282 23.2968 81.7061 22.1402 82.2093 20.7701C82.8543 19.0078 82.6287 17.1676 82.6807 15.3014L82.6778 15.3043Z" fill="white"/>
<path d="M151.968 5.60427C152.041 5.43986 152.116 5.27834 152.188 5.11393C152.613 4.13903 153.122 3.21604 153.831 2.41131C154.913 1.18258 156.283 0.527835 157.903 0.354775C159.442 0.190368 160.94 0.323047 162.342 1.0124C164.352 2.00173 165.466 3.66888 165.923 5.82059C166.267 7.43582 166.328 9.07413 166.328 10.7153C166.333 16.4494 166.333 22.1863 166.333 27.9204C166.333 28.5982 165.954 28.9876 165.272 28.9905C163.623 28.9962 161.978 28.9962 160.329 28.9905C159.664 28.9905 159.288 28.6011 159.288 27.9377C159.288 22.7113 159.288 17.482 159.288 12.2556C159.288 11.1855 159.251 10.1154 158.959 9.07701C158.638 7.93481 158.019 7.06086 156.758 6.82723C155.251 6.55033 153.898 7.24546 153.172 8.67609C152.741 9.5212 152.483 10.4269 152.394 11.3672C152.313 12.2152 152.263 13.0689 152.261 13.9198C152.249 18.5521 152.255 23.1872 152.255 27.8194C152.255 28.6126 151.879 28.9905 151.084 28.9905C149.502 28.9905 147.92 28.9905 146.335 28.9905C145.589 28.9905 145.21 28.6213 145.21 27.8771C145.204 19.2155 145.198 10.5538 145.195 1.89213C145.195 1.24027 145.563 0.859534 146.219 0.85665C147.769 0.845113 149.319 0.859534 150.87 0.847997C151.407 0.845113 151.896 1.26623 151.876 1.86905C151.835 2.99106 151.864 4.11595 151.864 5.23796C151.864 5.35045 151.864 5.46582 151.864 5.57831C151.899 5.58696 151.931 5.59562 151.966 5.60139L151.968 5.60427Z" fill="white"/>
<path d="M118.042 14.837C118.022 12.0565 118.436 9.35102 119.627 6.80992C120.781 4.34381 122.485 2.394 125.006 1.23738C126.635 0.490334 128.355 0.224974 130.134 0.302852C132.714 0.415341 134.998 1.27199 136.913 3.03432C138.426 4.42746 139.487 6.12633 140.152 8.05018C141.67 12.4286 141.806 16.8503 140.337 21.2691C139.467 23.8852 137.98 26.0975 135.672 27.6868C133.341 29.2905 130.741 29.8039 127.965 29.4174C123.942 28.8607 121.296 26.4955 119.621 22.9305C118.618 20.7903 118.161 18.5117 118.042 16.1638C118.019 15.7225 118.039 15.2783 118.039 14.837H118.042ZM125.541 14.488C125.602 15.6966 125.651 16.9051 125.727 18.1108C125.755 18.5838 125.834 19.0539 125.912 19.5212C126.102 20.623 126.38 21.696 126.996 22.6478C127.791 23.8737 128.997 24.3525 130.42 24.0208C131.615 23.741 132.32 22.9189 132.809 21.8662C133.257 20.8941 133.48 19.8587 133.581 18.803C133.856 15.9677 133.845 13.1295 133.457 10.3029C133.318 9.28757 133.087 8.29247 132.639 7.35217C131.618 5.22353 128.367 5.14854 127.106 6.80415C126.522 7.57138 126.186 8.43669 125.978 9.35967C125.599 11.047 125.565 12.7632 125.539 14.4851L125.541 14.488Z" fill="white"/>
<path d="M67.3534 49.9394C66.0982 49.9048 64.8373 49.9164 63.585 49.8269C61.9047 49.7058 60.2273 49.527 58.5528 49.3308C55.95 49.0251 53.3876 48.4973 50.8513 47.8425C47.1206 46.8792 43.5055 45.5927 40.009 43.9833C34.9826 41.6729 30.3438 38.7511 26.0693 35.2524C25.3232 34.6438 24.5973 34.0092 23.8916 33.3545C23.7036 33.1785 23.5532 32.8959 23.5127 32.6421C23.4462 32.2209 23.8742 31.8777 24.2936 31.9787C24.5221 32.0335 24.7447 32.1315 24.9501 32.2469C31.6278 36.0773 38.7105 38.9068 46.1604 40.8393C49.2722 41.647 52.4188 42.2844 55.5972 42.7517C57.1242 42.9766 58.6627 43.1468 60.2013 43.2853C61.8498 43.4324 63.5011 43.5506 65.1525 43.6054C67.1017 43.6689 69.0539 43.7093 71.0002 43.6573C72.8049 43.6083 74.6066 43.4554 76.4026 43.291C83.4621 42.6449 90.3278 41.1105 97.0056 38.7569C98.576 38.2031 100.12 37.5685 101.673 36.9628C102.093 36.7984 102.506 36.6772 102.966 36.8186C103.839 37.0868 104.149 38.0675 103.51 38.7165C103.111 39.1203 102.628 39.4462 102.156 39.7693C98.628 42.2065 94.8134 44.0958 90.8108 45.6129C86.895 47.0984 82.8692 48.1944 78.7423 48.9068C76.9116 49.2241 75.0636 49.4606 73.2155 49.6366C71.2663 49.8183 69.3084 49.8818 67.3534 50C67.3534 49.9798 67.3505 49.9596 67.3476 49.9394H67.3534Z" fill="white"/>
<path d="M105.97 6.43207H105.519C102.809 6.43207 100.1 6.43207 97.3897 6.43207C97.2596 6.43207 97.1295 6.43207 96.9993 6.41476C96.4874 6.33688 96.178 6.00807 96.1722 5.49466C96.1606 4.23132 96.1606 2.96798 96.1722 1.70464C96.178 1.17392 96.5048 0.847987 97.034 0.790301C97.1526 0.775879 97.2712 0.775879 97.3897 0.775879C102.841 0.775879 108.293 0.775879 113.747 0.775879C113.909 0.775879 114.074 0.781648 114.233 0.807607C114.67 0.879715 114.982 1.21141 114.985 1.65272C114.997 2.77473 115.04 3.9025 114.962 5.02162C114.93 5.46293 114.667 5.92154 114.409 6.30804C113.577 7.55696 112.7 8.77703 111.836 10.0086C109.617 13.167 107.399 16.3225 105.181 19.4808C105.12 19.5673 105.065 19.6568 104.967 19.8039C105.138 19.8039 105.262 19.8039 105.383 19.8039C107.697 19.7779 109.973 20.0231 112.162 20.7961C112.975 21.0816 113.756 21.4623 114.537 21.8373C115.196 22.1517 115.497 22.7199 115.5 23.4381C115.506 24.713 115.506 25.9879 115.5 27.2628C115.497 28.0906 114.846 28.4944 114.114 28.1223C110.893 26.4984 107.471 25.861 103.885 26.1032C101.329 26.2763 98.8994 26.9484 96.6118 28.1136C95.8251 28.5146 95.2062 28.1338 95.2033 27.2454C95.2005 25.8956 95.2033 24.5457 95.2062 23.1958C95.2062 22.2757 95.4694 21.445 96.0073 20.6807C99.258 16.0571 102.494 11.422 105.733 6.78972C105.8 6.69454 105.861 6.59359 105.965 6.43783L105.97 6.43207Z" fill="white"/>
<path d="M105.403 30.2509C107.092 30.2365 108.663 30.3634 110.187 30.8365C110.343 30.8855 110.49 30.9518 110.644 31.0037C111.28 31.223 111.526 31.6931 111.584 32.3363C111.751 34.2659 111.335 36.1119 110.791 37.9348C110.057 40.3894 108.955 42.6651 107.263 44.6178C106.818 45.1312 106.314 45.5956 105.802 46.0427C105.614 46.2042 105.325 46.2821 105.071 46.3311C104.834 46.3744 104.669 46.21 104.683 45.9648C104.695 45.7542 104.747 45.5408 104.816 45.3389C105.496 43.4497 106.216 41.5777 106.855 39.6741C107.283 38.3963 107.61 37.0839 107.607 35.7196C107.607 34.6755 107.24 34.1563 106.219 33.8881C105.606 33.7266 104.967 33.5996 104.336 33.5881C102.986 33.5622 101.629 33.5708 100.281 33.6545C98.8904 33.741 97.508 33.9285 96.1227 34.0813C95.6253 34.1361 95.339 34.0611 95.2291 33.8044C95.1336 33.5823 95.2956 33.2305 95.6571 32.968C97.0135 31.9787 98.5347 31.3441 100.148 30.9143C101.904 30.4442 103.691 30.2221 105.406 30.2509H105.403Z" fill="white"/>
</g>
<defs>
<clipPath id="clip0_1815_923">
<rect width="166.331" height="50" fill="white"/>
</clipPath>
</defs>
</svg>
