<svg width="191" height="32" viewBox="0 0 191 32" fill="none" xmlns="http://www.w3.org/2000/svg">
<g clip-path="url(#clip0_1815_972)">
<path d="M180.187 25.0767H175.504C175.495 24.9039 175.479 24.7453 175.479 24.5867C175.478 21.2948 175.482 18.0012 175.471 14.7092C175.471 14.2716 175.419 13.8276 175.333 13.3978C174.99 11.6852 173.59 11.3681 172.362 11.7582C171.547 12.0182 170.971 12.5907 170.525 13.3011C169.802 14.4507 169.456 15.7257 169.437 17.0688C169.403 19.579 169.426 22.0892 169.425 24.5994C169.425 24.7469 169.425 24.8944 169.425 25.0688H164.76V7.67652C164.884 7.66383 164.981 7.6448 165.077 7.64322C165.728 7.64163 166.38 7.63212 167.031 7.64797C167.539 7.66066 168.029 7.77007 168.455 8.06343C168.827 8.32032 169.085 8.67235 169.205 9.11794C169.263 9.33202 169.327 9.5445 169.412 9.83628C169.588 9.65551 169.72 9.52706 169.843 9.39227C170.758 8.39327 171.844 7.6559 173.178 7.39426C174.926 7.05333 176.598 7.21983 178.058 8.37741C178.55 8.76591 178.901 9.27176 179.206 9.81249C179.291 9.96155 179.382 10.1074 179.498 10.3025C179.629 10.1471 179.726 10.0377 179.817 9.92349C181.219 8.18554 183.013 7.25788 185.255 7.25154C185.909 7.25154 186.554 7.31021 187.187 7.48306C188.721 7.9001 189.784 8.85471 190.381 10.3294C190.716 11.1524 190.914 12.0151 190.93 12.9031C190.966 14.9328 190.985 16.9625 190.996 18.9923C191.005 20.8587 190.997 22.7267 190.996 24.5931C190.996 24.7405 190.996 24.888 190.996 25.0609C190.842 25.0751 190.733 25.0942 190.625 25.0942C189.936 25.0957 189.246 25.1037 188.558 25.0878C188.297 25.0815 188.033 25.045 187.78 24.98C186.895 24.7532 186.378 24.1078 186.305 23.1532C186.283 22.8646 186.287 22.5728 186.285 22.2827C186.285 19.8232 186.291 17.3621 186.279 14.9027C186.276 14.3762 186.203 13.8482 186.153 13.3233C186.14 13.1869 186.101 13.0505 186.06 12.9189C185.801 12.0674 185.263 11.6504 184.377 11.6234C183.215 11.5885 182.296 12.0817 181.562 12.9617C180.855 13.8101 180.515 14.8218 180.333 15.889C180.24 16.4329 180.196 16.9911 180.193 17.5429C180.179 19.8771 180.187 22.2097 180.187 24.5439C180.187 24.7057 180.187 24.8658 180.187 25.0751V25.0767Z" fill="white"/>
<path d="M13.1273 12.1942C13.3615 12.3306 13.4857 12.4115 13.6161 12.4797C16.1467 13.8006 16.9027 16.3901 16.7219 18.5974C16.5726 20.4131 15.8559 21.9528 14.4602 23.1374C13.3081 24.1157 11.9532 24.6517 10.4805 24.8801C9.79048 24.9879 9.08633 25.0434 8.38847 25.0482C5.74477 25.0672 3.10265 25.0561 0.458953 25.0561C0.325354 25.0561 0.190183 25.0561 0.0235764 25.0561C0.0141458 24.8737 0.00157176 24.7389 0.00157176 24.6041C0 17.5778 0 10.5514 0 3.52665C0.00157176 2.18195 0.723009 1.18136 1.91283 0.867383C2.09201 0.819811 2.28376 0.791268 2.46923 0.791268C4.68698 0.792854 6.90473 0.754796 9.11934 0.824569C10.8436 0.878483 12.4515 1.39067 13.7985 2.53716C15.0197 3.57581 15.6563 4.92368 15.7757 6.51892C15.8952 8.12209 15.5667 9.61267 14.5513 10.8876C14.2181 11.3062 13.7953 11.6551 13.4071 12.0309C13.3474 12.0896 13.2593 12.1197 13.1257 12.1958L13.1273 12.1942ZM4.67755 20.8999C4.73413 20.9221 4.75614 20.9379 4.77972 20.9379C6.20687 20.9379 7.6356 20.9839 9.06118 20.9253C10.4773 20.8666 11.4393 20.0674 11.8086 18.8004C11.9768 18.22 11.9988 17.6269 11.9202 17.0386C11.7788 15.9873 11.2742 15.1659 10.2997 14.6918C9.84392 14.4698 9.35353 14.3667 8.84585 14.3651C7.96881 14.3619 7.09334 14.3619 6.2163 14.3635C5.27482 14.3635 4.72628 14.779 4.69641 15.7114C4.63983 17.4351 4.68069 19.1603 4.68069 20.9015L4.67755 20.8999ZM4.65398 10.534C4.74514 10.5594 4.77972 10.5768 4.81587 10.5768C6.09213 10.5768 7.3684 10.5927 8.64467 10.5657C9.20579 10.5546 9.72132 10.3405 10.1488 9.95678C10.7665 9.40336 11.0275 8.67709 11.0777 7.87472C11.1752 6.28582 10.4302 4.95698 8.69025 4.80792C7.82107 4.73339 6.93774 4.73497 6.06698 4.78255C5.1978 4.83012 4.80015 5.26619 4.68069 6.13834C4.65869 6.30009 4.65712 6.465 4.65712 6.62833C4.65555 7.6876 4.65712 8.74528 4.65712 9.80455C4.65712 10.0424 4.65712 10.2803 4.65712 10.534H4.65398Z" fill="white"/>
<path d="M118.779 7.51001C118.779 7.69079 118.779 7.82875 118.779 7.96512C118.776 13.1505 118.773 18.3358 118.77 23.5195C118.77 24.9895 118.531 26.4071 117.83 27.7185C116.873 29.5104 115.37 30.649 113.5 31.3166C110.759 32.2965 108.014 32.1665 105.28 31.269C104.541 31.0264 103.829 30.7203 103.169 30.3318C103.158 30.2874 103.139 30.2589 103.147 30.2414C103.486 29.374 103.804 28.4971 104.178 27.6456C104.533 26.8385 105.099 26.5958 105.96 26.8115C106.627 26.9796 107.284 27.2048 107.958 27.33C109.163 27.5536 110.377 27.5838 111.557 27.1667C112.903 26.691 113.622 25.7158 113.743 24.2902C113.767 24.0159 113.772 23.7399 113.786 23.4291C113.703 23.4545 113.649 23.4561 113.618 23.4815C112.514 24.3679 111.238 24.7263 109.846 24.7659C107.933 24.8198 106.202 24.3187 104.707 23.0961C103.359 21.9925 102.504 20.5574 102.062 18.8813C101.385 16.3108 101.468 13.7689 102.62 11.3491C103.92 8.61685 106.161 7.25947 109.14 7.10407C110.187 7.05015 111.215 7.19445 112.206 7.55283C112.848 7.78593 113.437 8.11418 113.964 8.55342C114.058 8.63271 114.158 8.70565 114.262 8.78494C114.3 8.74847 114.334 8.72944 114.35 8.69931C114.721 7.95243 115.34 7.55759 116.147 7.51794C117.005 7.47513 117.868 7.50843 118.784 7.50843L118.779 7.51001ZM110.265 11.5378C108.591 11.533 107.513 12.3021 107.021 13.9195C106.584 15.3546 106.644 16.7881 107.202 18.1804C107.798 19.6646 108.961 20.4036 110.553 20.3623C112.099 20.3227 113.135 19.5536 113.577 18.0615C113.982 16.6898 113.987 15.2975 113.621 13.9164C113.266 12.5748 112.392 11.7851 111.013 11.5917C110.767 11.5568 110.513 11.5552 110.265 11.5378Z" fill="white"/>
<path d="M62.8548 17.8442V25.0688C62.5609 25.175 58.4225 25.2083 57.8535 25.1148V0.803955C57.9321 0.788098 58.0028 0.762726 58.0751 0.762726C59.0009 0.773826 59.9298 0.759554 60.854 0.808712C62.135 0.876898 62.8313 1.59999 62.8376 2.90029C62.8564 6.23032 62.847 9.56035 62.8501 12.8904C62.8501 13.0521 62.8501 13.2155 62.8501 13.42C63.4238 13.4612 63.9755 13.5215 64.4863 13.2789C64.6859 13.1837 64.8557 12.9776 64.9814 12.7841C66.0455 11.1492 67.0986 9.50802 68.1438 7.86045C68.2868 7.63527 68.4346 7.5322 68.7096 7.53537C70.338 7.54806 71.9663 7.54171 73.5947 7.54171C73.7063 7.54171 73.8163 7.55123 73.9797 7.55916C73.909 7.6876 73.8666 7.7875 73.8069 7.8763C72.3325 10.0852 70.8598 12.2941 69.3776 14.4967C69.1183 14.8821 68.8118 15.2341 68.5195 15.6131C69.56 16.8991 70.1368 18.4753 70.9683 19.9041C71.8673 21.4486 72.7884 22.9788 73.7 24.5169C73.8084 24.6993 73.9153 24.8832 74.0489 25.1116C73.9247 25.1322 73.8351 25.1607 73.7456 25.1607C72.43 25.156 71.116 25.137 69.8004 25.1401C68.6578 25.1433 67.8405 24.6248 67.3108 23.621C66.451 21.9956 65.5598 20.3877 64.752 18.7385C64.4156 18.0535 63.9645 17.776 63.2462 17.8458C63.1362 17.8569 63.0246 17.8458 62.8548 17.8458V17.8442Z" fill="white"/>
<path d="M56.0439 15.8684C56.143 21.0014 52.9444 24.5883 48.5576 25.2813C46.4986 25.6063 44.5104 25.3875 42.6243 24.4694C40.5024 23.4355 39.0438 21.78 38.2736 19.5441C37.5271 17.3748 37.5082 15.1738 38.2925 13.0157C39.4635 9.79822 41.8085 7.93658 45.1249 7.334C47.415 6.91854 49.628 7.23251 51.6634 8.40754C54.0777 9.79981 55.4498 11.9405 55.9135 14.6839C55.9889 15.1294 56.0125 15.5861 56.0424 15.8684H56.0439ZM42.6368 16.3822C42.6526 16.582 42.6683 16.8722 42.6981 17.1608C42.7154 17.3225 42.7469 17.4842 42.7814 17.6444C43.22 19.6488 44.6471 21.0188 46.5552 21.133C48.1223 21.2266 49.463 20.7223 50.2913 19.3475C51.4795 17.3748 51.4921 15.3039 50.3149 13.3233C48.9019 10.9495 45.4864 10.9003 43.8612 12.7667C42.9811 13.7784 42.6651 14.9836 42.6368 16.3838V16.3822Z" fill="white"/>
<path d="M88.4008 25.1148H83.4277V7.57186C83.5126 7.56076 83.5959 7.53856 83.6792 7.53856C84.4054 7.53856 85.1331 7.5227 85.8592 7.54966C86.1925 7.56235 86.5351 7.62419 86.851 7.72726C87.541 7.95402 87.9953 8.42974 88.1823 9.14649C88.2106 9.25432 88.2467 9.36056 88.2923 9.50962C88.3961 9.41924 88.4809 9.35105 88.558 9.27493C90.7804 7.05333 93.4335 6.67593 96.3051 7.56552C98.1991 8.15224 99.2318 9.61586 99.6577 11.5108C99.8165 12.218 99.9029 12.957 99.9092 13.6833C99.9375 17.3669 99.9296 21.0506 99.9328 24.7342C99.9328 24.8452 99.9202 24.9578 99.9108 25.0942C99.8023 25.11 99.7064 25.137 99.6121 25.137C98.8483 25.137 98.0844 25.137 97.3189 25.1275C97.1445 25.1259 96.9669 25.1132 96.7955 25.0799C95.6482 24.8642 95.0226 24.1602 94.9377 22.9836C94.9173 22.7076 94.9141 22.4286 94.9141 22.151C94.9126 19.7788 94.9204 17.4081 94.9079 15.0359C94.9047 14.5078 94.8701 13.975 94.779 13.4565C94.5888 12.3719 93.9789 11.8787 92.8803 11.8502C90.9297 11.7994 89.3863 12.892 88.7654 14.752C88.5077 15.5259 88.3976 16.3172 88.3992 17.1322C88.4039 19.6297 88.3992 22.1288 88.3992 24.6264C88.3992 24.7754 88.3992 24.9245 88.3992 25.1148H88.4008Z" fill="white"/>
<path d="M18.1504 16.5788C18.1897 13.6595 19.0274 11.3681 20.9623 9.54925C22.3533 8.24102 24.0288 7.51951 25.8992 7.27055C27.8544 7.01049 29.7531 7.24201 31.537 8.12209C34.1855 9.42873 35.7541 11.5869 36.2869 14.4888C36.6987 16.7278 36.4236 18.8939 35.3124 20.8999C33.9481 23.3609 31.8215 24.7722 29.093 25.2606C26.8831 25.6555 24.7439 25.397 22.7494 24.3203C20.2958 22.9946 18.8545 20.9046 18.3327 18.1693C18.2148 17.554 18.1881 16.9197 18.1504 16.5804V16.5788ZM23.0606 16.2807C23.0527 17.0989 23.1816 17.8918 23.5179 18.6371C24.2378 20.2339 25.4732 21.1156 27.2194 21.1425C28.9499 21.1695 30.2891 20.4099 31.0184 18.8004C31.7932 17.091 31.7854 15.3387 30.9319 13.6531C29.5126 10.848 25.6697 10.8004 24.0429 13.0474C23.3435 14.0131 23.07 15.1041 23.0606 16.2807Z" fill="white"/>
<path d="M153.538 7.24042C156.108 7.23091 158.172 7.90643 159.931 9.43032C161.22 10.5467 162.075 11.9532 162.527 13.5992C163.088 15.6369 163.058 17.6745 162.317 19.6551C161.194 22.6537 159.01 24.4694 155.924 25.1496C153.722 25.6349 151.56 25.4319 149.518 24.4202C146.99 23.1659 145.461 21.106 144.891 18.3469C144.476 16.3377 144.617 14.3508 145.45 12.4591C146.608 9.82675 148.627 8.20772 151.385 7.50524C152.179 7.30385 152.987 7.22774 153.538 7.2436V7.24042ZM154.059 21.1932C155.483 21.1346 156.79 20.4242 157.526 18.8495C158.293 17.2083 158.313 15.5195 157.567 13.8719C156.817 12.218 155.472 11.376 153.675 11.4156C151.888 11.4553 150.631 12.3782 149.93 14.0353C149.417 15.2484 149.384 16.509 149.667 17.7823C150.123 19.8406 151.77 21.1948 154.059 21.1932Z" fill="white"/>
<path d="M142.165 18.8749C142.246 18.997 142.318 19.1001 142.381 19.2064C142.918 20.1023 143.456 20.9982 143.992 21.8957C144.185 22.2208 144.188 22.2383 143.923 22.5094C142.492 23.9715 140.77 24.9134 138.775 25.2987C136.727 25.6952 134.704 25.5509 132.773 24.7136C129.961 23.4958 128.203 21.3645 127.6 18.3405C127.165 16.1538 127.383 14.0194 128.435 12.0198C129.475 10.0377 131.069 8.67236 133.147 7.89852C135.316 7.09139 137.527 7.02637 139.748 7.66542C140.732 7.94927 141.645 8.38376 142.363 9.15918C142.898 9.73797 143.203 10.4056 143.204 11.2032C143.204 11.885 143.211 12.5653 143.206 13.2472C143.204 13.5723 143.189 13.5849 142.859 13.5865C142.132 13.5897 141.405 13.5945 140.678 13.5834C139.883 13.5707 139.284 13.1711 139.042 12.4274C138.887 11.9501 138.574 11.7011 138.14 11.5505C137.03 11.1683 135.935 11.2682 134.883 11.7376C133.332 12.4289 132.513 13.6975 132.222 15.3403C132.075 16.1697 132.106 17.0006 132.326 17.8141C132.815 19.6202 134.022 20.6843 135.793 21.1187C137.667 21.5786 139.333 21.0379 140.861 19.9532C141.307 19.6361 141.711 19.2571 142.17 18.8765L142.165 18.8749Z" fill="white"/>
<path d="M75.5596 7.51953C76.6016 7.54649 77.6091 7.5005 78.5978 7.61626C79.7829 7.75422 80.4179 8.53123 80.5043 9.73955C80.5216 9.979 80.5216 10.2184 80.5216 10.4579C80.52 15.1881 80.5169 19.9183 80.5153 24.6486C80.5153 24.7976 80.5153 24.9483 80.5153 25.129H75.5611V7.51953H75.5596Z" fill="white"/>
<path d="M74.9356 2.90981C74.945 1.30981 76.2496 0 77.8339 0C79.4513 0 80.7511 1.33677 80.7354 2.98275C80.7197 4.578 79.4025 5.88464 77.8182 5.87512C76.215 5.86561 74.9262 4.54153 74.9356 2.9114V2.90981Z" fill="white"/>
<path d="M126.498 22.4C126.501 24.0174 125.216 25.3352 123.622 25.313C121.846 25.2892 120.79 23.7685 120.783 22.4365C120.775 20.8555 122.091 19.5203 123.622 19.5267C125.214 19.5346 126.495 20.8048 126.498 22.3984V22.4Z" fill="white"/>
</g>
<defs>
<clipPath id="clip0_1815_972">
<rect width="191" height="32" fill="white"/>
</clipPath>
</defs>
</svg>
