<svg width="132" height="57" viewBox="0 0 132 57" fill="none" xmlns="http://www.w3.org/2000/svg">
<path d="M132 57.0005H0C0 44.4427 0 31.8838 0 19.326C0.0642142 19.3327 0.129448 19.3442 0.193662 19.3442C3.55421 19.3452 6.91373 19.3461 10.2743 19.3442C10.3966 19.3442 10.5179 19.3173 10.685 19.2981V13.7459H11.3629C18.0513 13.7459 24.7388 13.7478 31.4273 13.7391C31.7249 13.7391 32.0429 13.6825 32.3161 13.5721C39.9443 10.508 47.5685 7.43427 55.1937 4.36152C58.7958 2.90914 62.3979 1.4558 66.0051 0.00149536C66.1294 0.0494921 66.2497 0.0936492 66.368 0.141646C77.4312 4.60055 88.4933 9.06137 99.5616 13.5107C99.9204 13.6547 100.338 13.7353 100.729 13.7362C107.385 13.7497 114.039 13.7459 120.695 13.7459H121.372V19.3528H131.979V19.9768C131.979 32.1046 131.979 44.2334 131.979 56.3612C131.979 56.5743 131.992 56.7884 131.999 57.0015L132 57.0005ZM53.6647 28.2965C53.6525 28.4559 53.6332 28.5893 53.6332 28.7218C53.6321 34.7089 53.626 40.696 53.6352 46.6841C53.6372 48.3458 54.8889 49.4938 56.6563 49.4948C58.8967 49.4967 61.136 49.4833 63.3764 49.5006C64.573 49.5102 65.5097 49.1473 66.0112 48.0309C66.4913 49.0926 67.3628 49.4977 68.5044 49.4967C70.7447 49.4938 72.9841 49.4967 75.2244 49.4967C77.1875 49.4967 78.4127 48.3534 78.4137 46.4998C78.4178 40.6039 78.4158 34.708 78.4137 28.813C78.4137 28.6498 78.3974 28.4857 78.3872 28.309H72.2441V44.4043H68.6736V28.3109H63.2908V44.4043H59.7121V28.2965H53.6637H53.6647ZM32.8084 38.875C32.8084 41.487 32.8063 44.098 32.8084 46.71C32.8094 48.3054 34.0611 49.4929 35.752 49.4948C39.6151 49.4986 43.4781 49.4996 47.3402 49.4948C48.9904 49.4929 50.2736 48.293 50.2757 46.734C50.2828 41.4957 50.2828 36.2573 50.2757 31.0189C50.2736 29.4677 49.0281 28.2764 47.3891 28.2716C43.4934 28.2591 39.5988 28.2601 35.7031 28.2716C34.0233 28.2764 32.8084 29.4542 32.8074 31.041C32.8053 33.653 32.8074 36.264 32.8074 38.876L32.8084 38.875ZM96.1684 36.4483H87.9256V33.2844H96.1532V28.2956H81.7875V49.465H96.1644V44.4475H87.9195V41.321C89.3036 41.321 90.6623 41.321 92.021 41.321C93.3797 41.321 94.77 41.321 96.1695 41.321V36.4493L96.1684 36.4483ZM117.31 29.9611C115.676 29.0482 113.979 28.3042 112.155 27.83C109.819 27.2233 107.513 27.2982 105.328 28.3081C100.534 30.5246 100.603 35.8954 103.237 38.3864C104.275 39.3684 105.484 40.0788 106.789 40.674C108.029 41.2384 109.282 41.7769 110.501 42.3778C110.904 42.5765 111.282 42.8885 111.561 43.2293C112.255 44.0798 111.986 45.0426 110.968 45.514C110.353 45.799 109.685 45.9066 109.027 45.7453C107.289 45.32 105.561 44.8612 103.835 44.3947C103.202 44.2228 102.587 43.9905 101.918 43.7707V48.9304C102.723 49.1367 103.512 49.3623 104.312 49.5418C106.956 50.1351 109.621 50.5507 112.354 50.232C113.976 50.0429 115.371 49.4593 116.386 48.1864C117.672 46.5728 118.318 44.7998 117.88 42.7839C117.531 41.1818 116.58 39.9118 115.23 38.8952C113.782 37.8047 112.128 37.0761 110.421 36.4358C109.56 36.1123 108.715 35.7504 108.073 35.09C107.343 34.3393 107.433 33.4802 108.322 32.8975C108.58 32.7286 108.898 32.6143 109.206 32.5443C110.218 32.312 111.224 32.4771 112.172 32.789C113.699 33.2911 115.191 33.8863 116.699 34.4421C116.886 34.5112 117.076 34.5784 117.31 34.6638V29.9611ZM21.0806 44.4609V23.7426H15.0231V49.4622H30.4039V44.4609H21.0806ZM101.729 29.8545C102.02 27.8185 102.31 25.8007 102.604 23.7417H97.5047V29.8545H101.729ZM120.237 31.6285C121.317 31.6285 122.14 30.8855 122.154 29.8958C122.169 28.9013 121.309 28.1055 120.227 28.1132C119.169 28.1209 118.339 28.9003 118.342 29.8824C118.345 30.8769 119.16 31.6275 120.236 31.6275L120.237 31.6285Z" fill="white"/>
</svg>
