<?xml version="1.0" encoding="UTF-8"?>
<svg id="Capa_2" data-name="Capa 2" xmlns="http://www.w3.org/2000/svg" viewBox="0 0 910.82 652.89">
  <defs>
    <style>
      .cls-1 {
        fill: #fff;
      }
    </style>
  </defs>
  <g id="Layer_1" data-name="Layer 1">
    <g>
      <path class="cls-1" d="m53.72,274.91c0,4.88-2.79,7.32-8.36,7.32s-8.36-2.44-8.36-7.32v-64.59c0-4.87,2.78-7.32,8.36-7.32s8.36,2.44,8.36,7.32v64.59Zm28.69-98.87c-5.54-5.57-12.25-8.36-20.12-8.36H28.43c-7.8,0-14.49,2.79-20.07,8.36-5.58,5.58-8.36,12.3-8.36,20.17v92.92c0,7.87,2.77,14.58,8.31,20.12,5.54,5.54,12.24,8.31,20.12,8.31h33.86c7.87,0,14.58-2.77,20.12-8.31,5.54-5.54,8.31-12.24,8.31-20.12v-92.92c0-7.87-2.77-14.59-8.31-20.17"/>
      <path class="cls-1" d="m108.57,316.14c.94.94,2.1,1.41,3.5,1.41h26.34c1.46,0,2.65-.47,3.55-1.41.9-.94,1.36-2.11,1.36-3.5v-65.33l17.35,65.12c.9,3.41,3.13,5.12,6.67,5.12h25.54c1.46,0,2.66-.47,3.6-1.41.94-.94,1.4-2.11,1.4-3.5v-139.95c0-1.32-.49-2.49-1.46-3.5-.97-1.01-2.15-1.51-3.54-1.51h-26.16c-1.46,0-2.66.52-3.6,1.57s-1.4,2.19-1.4,3.45v63.97l-15.37-63.97c-.7-3.34-2.82-5.02-6.37-5.02h-27.91c-1.26,0-2.39.52-3.4,1.57-1.01,1.04-1.51,2.19-1.51,3.45v139.95c0,1.39.47,2.56,1.41,3.5"/>
      <path class="cls-1" d="m216.94,316.14c1.01.94,2.14,1.41,3.39,1.41h74.31c1.39,0,2.56-.47,3.5-1.41.94-.94,1.41-2.11,1.41-3.5v-25.71c0-1.26-.47-2.35-1.42-3.29-.94-.94-2.11-1.41-3.51-1.41h-42.22v-22.05h29.36c1.47,0,2.65-.47,3.57-1.41.91-.94,1.36-2.04,1.36-3.29v-25.71c0-1.39-.47-2.56-1.42-3.5-.95-.94-2.11-1.41-3.51-1.41h-29.36v-21.85h42.22c1.4,0,2.57-.47,3.51-1.41.94-.94,1.42-2.11,1.42-3.5v-25.71c0-1.26-.47-2.35-1.41-3.29-.94-.94-2.11-1.41-3.5-1.41h-74.31c-1.25,0-2.39.47-3.39,1.41-1.01.94-1.52,2.04-1.52,3.29v140.26c0,1.39.5,2.56,1.52,3.5"/>
      <path class="cls-1" d="m367.31,309.24c5.54,5.54,12.25,8.31,20.12,8.31h33.86c7.87,0,14.58-2.77,20.12-8.31,5.54-5.54,8.31-12.24,8.31-20.12v-28.32c0-1.39-.47-2.56-1.41-3.5-.94-.94-2.11-1.41-3.5-1.41h-27.18c-1.25,0-2.39.47-3.39,1.41-1.01.94-1.52,2.11-1.52,3.5v14.11c0,4.88-2.79,7.32-8.36,7.32s-8.36-2.44-8.36-7.32v-64.59c0-4.87,2.79-7.32,8.36-7.32s8.36,2.44,8.36,7.32v14.11c0,1.46.5,2.65,1.52,3.55,1.01.9,2.14,1.36,3.39,1.36h27.18c1.46,0,2.65-.47,3.55-1.41.9-.94,1.36-2.11,1.36-3.5v-28.22c0-7.87-2.77-14.59-8.31-20.17-5.54-5.57-12.25-8.36-20.12-8.36h-33.86c-7.81,0-14.5,2.79-20.07,8.36-5.57,5.58-8.36,12.3-8.36,20.17v92.92c0,7.87,2.77,14.58,8.31,20.12"/>
      <path class="cls-1" d="m466.97,316.14c1.01.94,2.14,1.41,3.4,1.41h71.07c1.46,0,2.65-.47,3.55-1.41.9-.94,1.36-2.04,1.36-3.29v-25.71c0-1.39-.47-2.56-1.42-3.5-.94-.94-2.11-1.41-3.51-1.41h-38.97v-109.53c0-1.46-.49-2.67-1.46-3.6-.97-.94-2.15-1.41-3.54-1.41h-27.1c-1.39,0-2.56.49-3.49,1.46-.94.98-1.4,2.16-1.4,3.55v140.16c0,1.25.5,2.35,1.51,3.29"/>
      <path class="cls-1" d="m564.78,309.24c5.58,5.54,12.3,8.31,20.17,8.31h32.72c7.87,0,14.58-2.77,20.12-8.31,5.54-5.54,8.31-12.24,8.31-20.12v-116.43c0-1.46-.47-2.67-1.41-3.6-.94-.94-2.11-1.41-3.5-1.41h-26.13c-1.4,0-2.56.49-3.5,1.46-.94.98-1.41,2.16-1.41,3.55v101.17c0,5.57-2.79,8.36-8.36,8.36s-8.36-2.79-8.36-8.36v-101.17c0-1.46-.47-2.67-1.41-3.6-.94-.94-2.11-1.41-3.5-1.41h-27.17c-1.39,0-2.56.49-3.5,1.46-.94.98-1.41,2.16-1.41,3.55v116.43c0,7.87,2.79,14.58,8.36,20.12"/>
      <path class="cls-1" d="m666.62,316.14c1.01.94,2.14,1.4,3.39,1.4h57.31c7.87,0,14.58-2.76,20.15-8.28,5.57-5.52,8.35-12.21,8.35-20.06v-22.62c0-12.02-5.63-19.94-16.88-23.76,10.77-3.68,16.15-11.57,16.15-23.66v-22.62c0-7.85-2.76-14.56-8.3-20.11-5.53-5.56-12.23-8.34-20.1-8.34h-56.68c-1.25,0-2.38.47-3.39,1.41-1.01.94-1.51,2.03-1.51,3.28v139.87c0,1.39.5,2.56,1.51,3.49m35.48-55.68h8.52c5.47,0,8.2,3.15,8.2,9.45v7.56c0,6.3-2.73,9.45-8.2,9.45h-8.52v-26.47Zm0-61.75h7.89c5.47,0,8.21,3.15,8.21,9.45v7.35c0,6.3-2.74,9.45-8.21,9.45h-7.89v-26.25Z"/>
      <path class="cls-1" d="m8.95,483.81c1.01.94,2.14,1.41,3.39,1.41h27.1c1.32,0,2.48-.47,3.49-1.41,1.01-.94,1.51-2.11,1.51-3.5v-48.18h31.76c1.4,0,2.57-.47,3.51-1.41.94-.94,1.42-2.04,1.42-3.3v-25.71c0-1.39-.47-2.56-1.42-3.5-.95-.94-2.11-1.41-3.51-1.41h-31.76v-26.13h39.39c1.47,0,2.65-.47,3.56-1.41.91-.94,1.36-2.11,1.36-3.5v-25.71c0-1.26-.47-2.35-1.41-3.29s-2.11-1.41-3.5-1.41H12.35c-1.25,0-2.39.47-3.4,1.41-1.01.94-1.51,2.04-1.51,3.29v140.26c0,1.39.5,2.56,1.51,3.5"/>
      <path class="cls-1" d="m160.87,442.58c0,4.88-2.79,7.32-8.36,7.32s-8.36-2.44-8.36-7.32v-64.59c0-4.88,2.79-7.32,8.36-7.32s8.36,2.44,8.36,7.32v64.59Zm28.69-98.87c-5.54-5.57-12.25-8.36-20.12-8.36h-33.86c-7.81,0-14.5,2.79-20.07,8.36-5.57,5.58-8.36,12.3-8.36,20.17v92.92c0,7.87,2.77,14.58,8.31,20.12,5.54,5.54,12.24,8.31,20.12,8.31h33.86c7.87,0,14.58-2.77,20.12-8.31,5.54-5.54,8.31-12.24,8.31-20.12v-92.92c0-7.87-2.77-14.59-8.31-20.17"/>
      <path class="cls-1" d="m216.93,483.81c1.01.94,2.14,1.41,3.39,1.41h27.1c1.46,0,2.66-.47,3.6-1.41.93-.94,1.4-2.11,1.4-3.5v-46.72h7.26c6.31.07,9.47,3.24,9.47,9.51v29.68c0,8.29,3.06,12.44,9.17,12.44h24.39c2.99,0,4.48-1.22,4.48-3.66,0-.42-.17-1.74-.52-3.97-.35-2.23-.52-4.04-.52-5.43v-34.49c0-11.98-5.63-19.89-16.88-23.73,11.25-3.83,16.88-11.74,16.88-23.73v-26.34c0-7.87-2.79-14.59-8.35-20.17-5.57-5.57-12.28-8.36-20.15-8.36h-57.31c-1.26,0-2.38.47-3.39,1.41-1.01.94-1.51,2.04-1.51,3.29v140.26c0,1.39.5,2.56,1.51,3.5m35.49-113.14h8.31c5.61,0,8.41,3.13,8.41,9.4v8.78c0,6.34-2.81,9.51-8.41,9.51h-8.31v-27.7Z"/>
      <path class="cls-1" d="m8.31,644.36c5.54,5.54,12.24,8.31,20.12,8.31h33.86c7.87,0,14.58-2.77,20.12-8.31,5.54-5.54,8.31-12.24,8.31-20.12v-28.32c0-1.39-.47-2.56-1.41-3.5-.94-.94-2.11-1.41-3.5-1.41h-27.17c-1.25,0-2.39.47-3.4,1.41-1.01.94-1.51,2.11-1.51,3.5v14.11c0,4.88-2.79,7.32-8.36,7.32s-8.36-2.44-8.36-7.32v-64.59c0-4.87,2.78-7.32,8.36-7.32s8.36,2.44,8.36,7.32v14.11c0,1.46.5,2.65,1.51,3.55,1.01.9,2.15,1.36,3.4,1.36h27.17c1.47,0,2.65-.47,3.55-1.41.9-.94,1.36-2.11,1.36-3.5v-28.22c0-7.87-2.77-14.59-8.31-20.17-5.54-5.57-12.25-8.36-20.12-8.36H28.43c-7.8,0-14.49,2.79-20.07,8.36-5.58,5.58-8.36,12.3-8.36,20.17v92.92c0,7.87,2.77,14.58,8.31,20.12"/>
      <path class="cls-1" d="m160.35,556.3c0,6.34-2.81,9.51-8.41,9.51h-8.31v-27.7h8.31c5.61,0,8.41,3.14,8.41,9.41v8.78Zm37.52,88.74c-.35-2.23-.52-4.04-.52-5.44v-34.49c0-11.98-5.63-19.89-16.88-23.73,11.26-3.83,16.88-11.74,16.88-23.73v-26.34c0-7.87-2.78-14.59-8.35-20.17-5.57-5.57-12.29-8.36-20.15-8.36h-57.31c-1.25,0-2.38.47-3.39,1.41-1.01.94-1.51,2.04-1.51,3.29v140.26c0,1.39.5,2.56,1.51,3.5,1.01.94,2.14,1.41,3.39,1.41h27.1c1.46,0,2.66-.47,3.6-1.41.94-.94,1.41-2.11,1.41-3.5v-46.72h7.26c6.31.07,9.47,3.24,9.47,9.51v29.68c0,8.29,3.06,12.44,9.17,12.44h24.39c2.99,0,4.48-1.22,4.48-3.66,0-.42-.17-1.74-.52-3.97"/>
      <path class="cls-1" d="m216.94,651.25c1.01.94,2.15,1.41,3.4,1.41h74.31c1.39,0,2.56-.47,3.5-1.41.94-.94,1.41-2.11,1.41-3.5v-25.71c0-1.26-.47-2.35-1.41-3.29-.95-.94-2.11-1.41-3.51-1.41h-42.22v-22.05h29.36c1.47,0,2.65-.47,3.56-1.41.91-.94,1.36-2.04,1.36-3.29v-25.71c0-1.39-.47-2.56-1.42-3.5-.94-.94-2.11-1.41-3.51-1.41h-29.36v-21.85h42.22c1.39,0,2.56-.47,3.51-1.41.94-.94,1.41-2.11,1.41-3.5v-25.71c0-1.26-.47-2.35-1.41-3.29-.94-.94-2.11-1.41-3.5-1.41h-74.31c-1.25,0-2.39.47-3.4,1.41-1.01.94-1.51,2.03-1.51,3.29v140.26c0,1.39.5,2.56,1.51,3.5"/>
      <path class="cls-1" d="m349.93,591.24l3.24-42.13c0-1.74.64-2.61,1.93-2.61s1.93.87,1.93,2.61l2.89,42.13h-9.99Zm53.87,52.23l-12.65-136.18c-.3-3-2.09-4.5-5.36-4.5h-58.12c-3.14,0-4.84,1.5-5.12,4.5l-12.65,136.4c-.28,2.86-.42,4.5-.42,4.92,0,1.12.4,2.11,1.2,2.98.8.87,1.83,1.31,3.08,1.31h27.39c3.06,0,4.73-1.64,5.02-4.92l1.88-30.04h13.69l2.05,30.04c.3,3.28,2.11,4.92,5.44,4.92h30.44c1.41,0,2.51-.45,3.32-1.34.8-.89,1.21-1.91,1.21-3.05,0-.43-.14-2.11-.42-5.03"/>
      <path class="cls-1" d="m406.74,538.38c1.01.94,2.15,1.4,3.41,1.4h20.99v107.86c0,1.39.5,2.56,1.51,3.5,1.01.94,2.14,1.41,3.39,1.41h27.2c1.25,0,2.38-.47,3.39-1.41,1.01-.94,1.51-2.11,1.51-3.5v-107.86h20.99c1.33,0,2.48-.47,3.46-1.4.98-.94,1.47-2.1,1.47-3.49v-27.1c0-1.46-.5-2.66-1.52-3.6-1.01-.94-2.15-1.41-3.4-1.41h-79c-1.33,0-2.48.49-3.45,1.46-.98.97-1.47,2.15-1.47,3.54v27.1c0,1.39.5,2.56,1.52,3.49"/>
      <path class="cls-1" d="m508.42,651.25c.94.94,2.1,1.41,3.49,1.41h27.1c1.46,0,2.66-.47,3.6-1.41.94-.94,1.41-2.11,1.41-3.5v-139.95c0-1.46-.49-2.67-1.46-3.6-.97-.94-2.15-1.41-3.54-1.41h-27.1c-1.39,0-2.56.49-3.49,1.46-.94.98-1.4,2.16-1.4,3.55v139.95c0,1.39.47,2.56,1.4,3.5"/>
      <path class="cls-1" d="m560.31,511.98l14.84,136.19c.42,3,2.05,4.5,4.91,4.5h51.74c3.2,0,4.94-1.5,5.22-4.5l14.73-136.19c.28-2.86.42-4.49.42-4.91,0-1.12-.4-2.11-1.2-2.98-.8-.87-1.83-1.31-3.08-1.31h-27.38c-3,.07-4.64,1.74-4.91,5.02l-7.11,92.39c0,1.47-.65,2.18-1.93,2.15-1.29-.03-1.94-.75-1.94-2.15l-6.58-92.39c-.28-3.34-1.99-5.02-5.12-5.02h-28.74c-1.26,0-2.29.44-3.08,1.31-.8.87-1.2,1.86-1.2,2.98,0,.42.14,2.05.42,4.91"/>
      <path class="cls-1" d="m669.04,651.25c.94.94,2.1,1.41,3.49,1.41h27.1c1.46,0,2.65-.47,3.59-1.41.94-.94,1.41-2.11,1.41-3.5v-139.95c0-1.46-.49-2.67-1.46-3.6-.97-.94-2.15-1.41-3.54-1.41h-27.1c-1.39,0-2.56.49-3.49,1.46-.94.98-1.4,2.16-1.4,3.55v139.95c0,1.39.47,2.56,1.4,3.5"/>
      <path class="cls-1" d="m719.64,538.38c1.01.94,2.15,1.4,3.41,1.4h20.99v107.86c0,1.39.5,2.56,1.51,3.5,1.01.94,2.14,1.41,3.39,1.41h27.2c1.25,0,2.38-.47,3.39-1.41,1.01-.94,1.51-2.11,1.51-3.5v-107.86h20.99c1.33,0,2.48-.47,3.46-1.4.98-.94,1.47-2.1,1.47-3.49v-27.1c0-1.46-.5-2.66-1.51-3.6-1.01-.94-2.15-1.41-3.4-1.41h-79c-1.33,0-2.48.49-3.46,1.46-.98.97-1.47,2.15-1.47,3.54v27.1c0,1.39.51,2.56,1.52,3.49"/>
      <path class="cls-1" d="m818.11,514.39l27.49,94.59v38.78c0,1.39.5,2.56,1.52,3.5,1.01.94,2.14,1.41,3.39,1.41h27.18c1.25,0,2.38-.47,3.39-1.41,1.01-.94,1.51-2.11,1.51-3.5v-38.98l26.55-94.38c1.11-3.9,1.67-6.55,1.67-7.95,0-2.44-1.29-3.66-3.87-3.66h-27.17c-2.72,0-4.43,1.43-5.12,4.29l-7.94,37.52c-.28.84-.84,1.26-1.67,1.26s-1.4-.42-1.67-1.26l-8.99-37.52c-.77-2.86-2.44-4.29-5.02-4.29h-28.63c-2.72,0-4.08,1.22-4.08,3.66,0,2.02.49,4.67,1.46,7.95"/>
      <path class="cls-1" d="m216.94,148.47c1.01.94,2.14,1.41,3.4,1.41h74.31c1.39,0,2.56-.47,3.5-1.41.94-.94,1.41-2.11,1.41-3.5v-25.71c0-1.26-.47-2.35-1.41-3.3-.95-.94-2.11-1.41-3.51-1.41h-42.21v-22.05h29.36c1.47,0,2.65-.47,3.56-1.41.91-.94,1.36-2.04,1.36-3.29v-25.71c0-1.39-.47-2.56-1.42-3.5-.94-.94-2.11-1.41-3.51-1.41h-29.36v-21.85h42.21c1.4,0,2.57-.47,3.51-1.41.94-.94,1.41-2.11,1.41-3.5V4.7c0-1.26-.47-2.35-1.41-3.3-.94-.94-2.11-1.41-3.5-1.41h-74.31c-1.26,0-2.39.47-3.4,1.41-1.01.94-1.51,2.04-1.51,3.3v140.26c0,1.39.5,2.56,1.51,3.5"/>
      <path class="cls-1" d="m108.56,148.47c.94.94,2.1,1.41,3.49,1.41h27.1c1.46,0,2.66-.47,3.6-1.41.94-.94,1.4-2.11,1.4-3.5v-52.47h16.72v52.47c0,1.39.47,2.56,1.4,3.5.94.94,2.1,1.41,3.49,1.41h27.1c1.46,0,2.65-.47,3.59-1.41.94-.94,1.41-2.11,1.41-3.5V5.02c0-1.46-.49-2.67-1.46-3.61-.97-.94-2.15-1.41-3.54-1.41h-27.1c-1.39,0-2.56.49-3.49,1.46-.94.98-1.4,2.16-1.4,3.55v52.16h-16.72V5.02c0-1.46-.49-2.67-1.46-3.61-.97-.94-2.15-1.41-3.54-1.41h-27.1c-1.39,0-2.56.49-3.49,1.46-.94.98-1.41,2.16-1.41,3.55v139.95c0,1.39.47,2.56,1.41,3.5"/>
      <path class="cls-1" d="m2.44,35.83c1.01.94,2.15,1.4,3.41,1.4h22.1v107.86c0,1.39.5,2.56,1.51,3.5,1.01.94,2.14,1.41,3.39,1.41h27.2c1.25,0,2.38-.47,3.39-1.41,1.01-.94,1.51-2.11,1.51-3.5V37.23h20.99c1.33,0,2.48-.47,3.46-1.4.98-.94,1.47-2.1,1.47-3.49V5.24c0-1.46-.5-2.66-1.51-3.6-1.01-.94-2.15-1.41-3.4-1.41H5.83c-1.33,0-2.48.49-3.46,1.46-.98.97-1.47,2.15-1.47,3.54v27.1c0,1.39.5,2.56,1.52,3.49"/>
    </g>
  </g>
</svg>