<?xml version="1.0" encoding="UTF-8"?>
<svg id="Capa_2" data-name="Capa 2" xmlns="http://www.w3.org/2000/svg" viewBox="0 0 876.47 651.09">
  <defs>
    <style>
      .cls-1 {
        fill: #fff;
      }
    </style>
  </defs>
  <g id="Layer_1" data-name="Layer 1">
    <g>
      <path class="cls-1" d="m221.51,366.82c0,10.76,8.62,19.39,19.39,19.39h13.19c10.77,0,19.12-8.36,19.12-19.39v-79.71c0-11.04-8.35-19.39-19.12-19.39h-13.19c-10.77,0-19.39,8.62-19.39,19.39v79.71"/>
      <path class="cls-1" d="m716.98,0h-225.31c-4.2,0-10.06,2.43-13.03,5.4l-234.06,234.05h9.51c30.16,0,50.08,19.11,50.08,47.66v79.71c0,28.53-19.93,47.66-50.08,47.66h-13.19c-30.43,0-50.09-19.13-50.09-47.66v-73.6l-111.9,111.9c-2.97,2.97-5.39,8.83-5.39,13.03v225.31c0,4.2,3.44,7.63,7.63,7.63h225.31c4.2,0,10.06-2.43,13.03-5.4l233.91-233.91h-68.04c-1.87,0-2.68-.8-2.68-2.69v-164.26c0-1.88.81-2.69,2.68-2.69h95.06c1.61,0,2.69.81,2.69,2.69v22.89c0,1.89-.81,2.7-2.69,2.7h-64.09c-1.89,0-2.7.81-2.7,2.7v35.81c0,1.89.81,2.69,2.7,2.69h52.5c1.89,0,2.7.81,2.7,2.7v22.89c0,1.88-.81,2.68-2.7,2.68h-52.5c-1.89,0-2.7.81-2.7,2.69v38.23c0,1.89.81,2.69,2.7,2.69h64.09c.4,0,.77.05,1.1.16l137.69-137.7c2.97-2.97,5.4-8.83,5.4-13.02V7.63c0-4.19-3.43-7.63-7.63-7.63Zm-270.65,409.09c0,1.89-.81,2.69-2.7,2.69h-22.35l-2.42-1.34-55.2-108.25,1.35,106.9c0,1.89-.81,2.69-2.69,2.69h-25.04c-1.88,0-2.69-.8-2.69-2.69v-164.26c0-1.88.81-2.69,2.69-2.69h22.62l2.42,1.35,54.94,109.32-1.08-107.98c0-1.88.81-2.69,2.69-2.69h24.77c1.61,0,2.7.81,2.7,2.69v164.26"/>
      <g>
        <g>
          <path class="cls-1" d="m40.88,251.29h-12.31c-.79,0-1.13.34-1.13,1.13v57.03c0,.79-.34,1.13-1.13,1.13h-10.62c-.79,0-1.13-.34-1.13-1.13v-57.03c0-.79-.34-1.13-1.13-1.13H1.13c-.79,0-1.13-.34-1.13-1.13v-9.6c0-.79.34-1.13,1.13-1.13h39.75c.68,0,1.13.34,1.13,1.13v9.6c0,.79-.34,1.13-1.13,1.13Z"/>
          <path class="cls-1" d="m99.27,310.59h-10.62c-.79,0-1.13-.34-1.13-1.13v-27.9c0-.79-.34-1.13-1.13-1.13h-21.01c-.79,0-1.13.34-1.13,1.13v27.9c0,.79-.34,1.13-1.13,1.13h-10.73c-.79,0-1.13-.34-1.13-1.13v-68.89c0-.79.34-1.13,1.13-1.13h10.73c.68,0,1.13.34,1.13,1.13v26.88c0,.79.34,1.13,1.13,1.13h21.01c.79,0,1.13-.34,1.13-1.13v-26.88c0-.79.34-1.13,1.13-1.13h10.62c.79,0,1.13.34,1.13,1.13v68.89c0,.79-.34,1.13-1.13,1.13Z"/>
          <path class="cls-1" d="m153.82,310.59h-39.87c-.79,0-1.13-.34-1.13-1.13v-68.89c0-.79.34-1.13,1.13-1.13h39.87c.68,0,1.13.34,1.13,1.13v9.6c0,.79-.34,1.13-1.13,1.13h-26.88c-.79,0-1.13.34-1.13,1.13v15.02c0,.79.34,1.13,1.13,1.13h22.02c.79,0,1.13.34,1.13,1.13v9.6c0,.79-.34,1.13-1.13,1.13h-22.02c-.79,0-1.13.34-1.13,1.13v16.04c0,.79.34,1.13,1.13,1.13h26.88c.68,0,1.13.34,1.13,1.13v9.6c0,.79-.34,1.13-1.13,1.13Z"/>
        </g>
        <g>
          <path class="cls-1" d="m649.58,359.14c0,5.31,5.19,6.89,13.1,10.5,12.08,5.53,17.73,11.75,17.73,22.93,0,11.97-8.24,19.99-21.01,19.99h-4.52c-6.44,0-11.29-1.8-14.68-5.31-3.73-3.84-5.2-7.11-5.2-8.24,0-.23.23-.57.68-.79l9.83-4.86c.23-.11.34-.11.57-.11.79,0,1.02,1.13,2.15,3.39,1.24,2.37,4.07,4.07,6.66,4.07h4.52c4.41,0,8.13-3.61,8.13-8.13,0-5.65-4.75-7.68-12.08-11.18-12.43-5.99-18.75-11.07-18.75-22.25,0-11.97,8.36-19.99,21.01-19.99h1.69c5.2,0,9.26,1.13,12.88,3.73,4.4,3.16,7.23,8.25,7.23,9.6,0,.45-.22.68-.68.9l-9.83,4.86c-.23.11-.45.11-.57.11-.57,0-.79-.68-1.47-1.69-2.14-3.62-4.06-5.65-7.57-5.65h-1.69c-4.41,0-8.13,3.5-8.13,8.13Z"/>
          <path class="cls-1" d="m737,411.43h-10.62c-.79,0-1.13-.34-1.13-1.13v-27.9c0-.79-.34-1.13-1.13-1.13h-21.01c-.79,0-1.13.34-1.13,1.13v27.9c0,.79-.34,1.13-1.13,1.13h-10.73c-.79,0-1.13-.34-1.13-1.13v-68.89c0-.79.34-1.13,1.13-1.13h10.73c.68,0,1.13.34,1.13,1.13v26.88c0,.79.34,1.13,1.13,1.13h21.01c.79,0,1.13-.34,1.13-1.13v-26.88c0-.79.34-1.13,1.13-1.13h10.62c.79,0,1.13.34,1.13,1.13v68.89c0,.79-.34,1.13-1.13,1.13Z"/>
          <path class="cls-1" d="m775.51,412.56h-5.53c-12.76,0-21.01-8.02-21.01-19.99v-33.43c0-11.97,8.36-19.99,21.01-19.99h5.53c12.65,0,21.01,8.02,21.01,19.99v33.43c0,11.97-8.36,19.99-21.01,19.99Zm8.02-53.42c0-4.63-3.5-8.13-8.02-8.13h-5.53c-4.52,0-8.13,3.61-8.13,8.13v33.43c0,4.52,3.62,8.13,8.13,8.13h5.53c4.52,0,8.02-3.5,8.02-8.13v-33.43Z"/>
          <path class="cls-1" d="m861.45,410.53c-.11.57-.56.9-1.13.9h-8.24c-.68,0-1.02-.23-1.13-.79l-11.41-44.72-11.29,44.72c-.11.57-.45.79-1.13.79h-8.25c-.56,0-1.02-.34-1.13-.9l-14.91-68.89c0-.11-.11-.34-.11-.45,0-.57.45-.9,1.24-.9h11.52c.57,0,1.02.34,1.13.9l8.25,45.97,10.73-46.3c.11-.57.45-.79,1.13-.79h5.65c.68,0,1.02.23,1.13.79l10.73,46.3,8.36-45.97c.11-.57.57-.9,1.13-.9h11.52c.79,0,1.24.34,1.24.9,0,.11-.11.34-.11.45l-14.91,68.89Z"/>
        </g>
      </g>
    </g>
  </g>
</svg>